<svg width="168" height="48" viewBox="0 0 168 48" fill="none" xmlns="http://www.w3.org/2000/svg">
<path d="M19.2266 40.0234C19.1558 39.5564 19.0833 39.117 19.0303 38.6749C19.024 38.6223 19.1126 38.5266 19.1761 38.5019C19.4321 38.402 19.6969 38.326 19.9554 38.2322C20.0298 38.2053 20.0936 38.1478 20.1619 38.1044C20.1012 38.0524 20.0488 37.9807 19.9789 37.9512C18.3767 37.2774 16.7446 36.6695 15.1805 35.9143C14.2865 35.483 13.5437 35.531 12.6691 35.9315C10.9471 36.7201 9.17846 37.4024 7.42888 38.131C7.35044 38.1634 7.28089 38.2189 7.17767 38.2819C7.33869 38.4023 7.48128 38.5006 7.6153 38.6103C8.35211 39.2127 8.63476 40.0383 8.64937 40.9607C8.6716 42.3563 8.67763 43.7554 8.64937 45.152C8.61761 46.6666 7.72519 47.5212 6.3945 47.8269C4.78847 48.1959 3.29677 47.824 1.90828 46.9714C1.78791 46.8974 1.68121 46.6939 1.67708 46.5472C1.65389 45.7706 1.65453 44.9926 1.6685 44.2153C1.68438 43.3329 1.97942 42.6013 2.83246 42.2336C3.06207 42.1362 3.31773 42.0587 3.5629 42.0489C4.20983 42.0236 4.85834 42.0405 5.52876 42.0405V43.5127H4.0342C3.31265 43.5127 3.16084 43.6665 3.15957 44.3948C3.15957 44.8453 3.14147 45.2967 3.16275 45.7462C3.16783 45.8595 3.26628 46.0253 3.3641 46.0688C4.27271 46.4739 5.20927 46.6368 6.19061 46.3573C6.75083 46.1977 7.13893 45.8027 7.14591 45.2172C7.16401 43.697 7.16751 42.1755 7.12305 40.6566C7.1005 39.8868 6.38529 39.3584 5.46842 39.3286C4.5128 39.2961 3.62642 39.5853 2.75179 39.939C2.59109 40.0039 2.4342 40.075 2.22587 40.164C2.13694 39.7339 2.03817 39.3445 1.98863 38.9485C1.97751 38.8606 2.12043 38.7064 2.22587 38.6564C3.32567 38.1349 4.46834 37.8012 5.69835 37.8853C5.75076 37.8889 5.80443 37.8707 5.89081 37.8574C5.67708 36.6565 5.56179 35.4635 5.77108 34.2617C5.98037 33.0599 6.5244 32.0129 7.21737 30.9961C4.40197 30.261 2.18903 28.6044 0.0265808 26.8016C2.52344 24.8952 4.99522 22.9956 8.23047 22.4052C10.123 14.9941 12.019 7.57002 13.9369 0.0605774C14.048 0.450038 14.1439 0.757711 14.2249 1.0709C14.4637 1.99684 14.7013 2.92279 14.9309 3.851C15.2783 5.2576 15.6067 6.66907 15.9646 8.07275C16.414 9.83473 16.8898 11.5899 17.3458 13.3503C18.0043 15.8908 18.659 18.4325 19.3101 20.9752C19.4108 21.3647 19.4943 21.7623 19.6185 22.1436C19.6579 22.265 19.789 22.4156 19.9043 22.4419C22.3497 23.0053 24.4976 24.1974 26.5031 25.6919C26.9633 26.035 27.4301 26.3689 27.9764 26.7675C26.7839 27.6233 25.6609 28.4798 24.4877 29.2568C23.3145 30.0338 22.0423 30.5936 20.6535 31.0094C22.2211 33.0939 22.5454 35.3759 21.9801 37.8269C22.3967 37.8726 22.7781 37.8986 23.1551 37.9567C24.7329 38.2059 25.6958 39.3792 25.726 41.0097C25.745 42.0996 25.4497 43.1216 25.1715 44.1511C24.9898 44.8229 24.7828 45.4882 24.6246 46.1659C24.3092 47.5153 23.2634 48.0629 22.088 47.9434C21.7841 47.911 21.4897 47.7893 21.1858 47.7467C20.8745 47.7029 20.8101 47.505 20.7786 47.2365C20.6694 46.2983 20.549 45.3613 20.4321 44.4237C20.3826 44.0258 20.294 43.9433 19.9068 43.9333C19.7306 43.9287 19.554 43.9278 19.3777 43.9232C19.3568 43.9232 19.3358 43.9109 19.2583 43.8859C19.2583 43.4835 19.252 43.0609 19.2656 42.639C19.2675 42.5828 19.3755 42.4793 19.4273 42.4838C19.9068 42.5244 20.4118 42.5023 20.8564 42.6568C21.5761 42.9064 21.8076 43.5714 21.8914 44.2867C21.9673 44.9358 22.0293 45.5849 22.0998 46.2317C22.1142 46.3166 22.1328 46.4007 22.1557 46.4836C22.3256 46.4836 22.4895 46.4816 22.6533 46.4836C22.895 46.4872 23.057 46.3726 23.1192 46.1363C23.4775 44.7797 23.8541 43.4273 24.1727 42.0606C24.2698 41.6439 24.2413 41.1843 24.2016 40.7491C24.1244 39.9085 23.4606 39.3178 22.5098 39.3438C21.7812 39.3639 21.0533 39.5272 20.3321 39.6651C19.9685 39.7378 19.6226 39.893 19.2266 40.0234ZM13.0876 10.5108L12.9339 10.5189L10.0274 22.0842C10.8286 22.0407 11.5639 22.0005 12.2994 21.9616C13.0934 21.9194 13.0899 21.92 13.0934 21.0995C13.1061 17.7205 13.1191 14.3417 13.1324 10.9629C13.1327 10.8123 13.1032 10.6617 13.0876 10.5108ZM13.0968 31.6977C12.8358 31.6799 12.6189 31.6679 12.4023 31.65C11.3403 31.5617 10.2786 31.4689 9.21594 31.3904C9.13845 31.3849 9.03396 31.4553 8.97648 31.5225C8.22602 32.3858 7.64929 33.3526 7.45207 34.5031C7.35679 35.0688 7.36155 35.653 7.31519 36.3148C7.89827 36.072 8.37211 35.8727 8.84722 35.677C10.1811 35.1282 11.5149 34.5843 12.845 34.0248C12.9501 33.9806 13.0816 33.8346 13.0848 33.7327C13.1076 33.068 13.0968 32.4043 13.0968 31.6977ZM14.7893 21.8963L17.8492 22.0716C16.8533 18.1205 15.8694 14.2175 14.8855 10.3131L14.7902 10.3303L14.7893 21.8963ZM20.4893 36.2664C20.5077 36.1366 20.5271 36.0522 20.5312 35.9659C20.6122 34.2954 20.051 32.8635 18.9925 31.6111C18.8518 31.4446 18.7095 31.4024 18.5066 31.4189C17.3566 31.514 16.2063 31.6049 15.0548 31.6786C14.8325 31.6929 14.7791 31.776 14.7826 31.984C14.7921 32.5237 14.7947 33.0641 14.7772 33.6035C14.7696 33.8466 14.8591 33.9569 15.0767 34.0452C16.34 34.557 17.5964 35.0873 18.856 35.6079C19.3901 35.8283 19.9275 36.0402 20.4893 36.2668V36.2664ZM13.0924 23.6645C10.4142 23.3889 4.82086 24.7855 4.03706 25.9302H13.0924V23.6645ZM23.7528 25.923C20.9558 24.1023 17.9384 23.656 14.7769 23.634C14.7769 24.3207 14.7896 24.9718 14.7708 25.6218C14.7629 25.898 14.8582 25.96 15.1126 25.9594C17.8778 25.9509 20.643 25.9538 23.4082 25.9529C23.4902 25.9525 23.5718 25.9392 23.7528 25.923ZM4.1895 27.6817C4.1841 27.7048 4.1787 27.7278 4.17299 27.7509C4.23137 27.8004 4.29244 27.8464 4.35592 27.8888C5.38426 28.5016 6.45199 29.0118 7.60705 29.3412C8.20379 29.5116 8.64397 29.4862 9.0997 28.9923C9.54432 28.5094 10.1061 28.1371 10.6584 27.6817H4.1895ZM17.3414 27.6817L17.2775 27.8041C17.3373 27.8333 17.4046 27.8525 17.4551 27.8937C18.035 28.3704 18.6216 28.8397 19.1847 29.337C19.3581 29.4901 19.5051 29.5278 19.7176 29.4746C20.6805 29.2347 21.6075 28.8978 22.4882 28.4324C22.9068 28.2114 23.3174 27.9742 23.7315 27.7444L23.703 27.6817H17.3414ZM13.0721 29.9861V28.1968C12.2444 28.6973 11.4645 29.1705 10.6978 29.8407L13.0721 29.9861ZM14.8166 29.9766L17.047 29.8468C17.0594 29.8069 17.0714 29.7667 17.0838 29.7267L14.8166 28.1796V29.9766Z" fill="#DE5C8E"/>
<path d="M10.4336 37.995H11.8976V38.4042C11.8976 40.5336 11.925 42.6633 11.8862 44.7917C11.8675 45.8076 12.3829 46.31 13.2144 46.4469C14.0458 46.5839 14.834 46.4313 15.5988 46.0971C15.8246 45.9997 15.8764 45.8501 15.8754 45.607C15.8646 43.1959 15.8681 40.7851 15.8678 38.3741V38.0047H17.3118C17.3242 38.0738 17.3493 38.1469 17.3493 38.2202C17.3531 41.0026 17.3592 43.785 17.3442 46.5673C17.3442 46.715 17.1921 46.9328 17.0565 46.9961C16.4302 47.2882 15.8011 47.5952 15.1424 47.7867C14.2065 48.0593 13.2483 48.0564 12.3124 47.7218C11.071 47.2768 10.4329 46.4459 10.4161 45.1078C10.3872 42.81 10.4047 40.5115 10.4043 38.2134C10.4096 38.14 10.4193 38.0671 10.4336 37.995Z" fill="#DE5C8E"/>
<path d="M26.9569 47.9691C27.5182 47.9691 27.9732 47.5041 27.9732 46.9305C27.9732 46.3569 27.5182 45.8919 26.9569 45.8919C26.3957 45.8919 25.9407 46.3569 25.9407 46.9305C25.9407 47.5041 26.3957 47.9691 26.9569 47.9691Z" fill="#DE5C8E"/>
<path d="M19.9815 31.6328C20.0837 31.6328 20.0837 31.4705 19.9815 31.4705C19.8792 31.4705 19.8792 31.6328 19.9815 31.6328Z" fill="#DE5C8E"/>
<path d="M60.56 15.224H63.032V32H60.56V15.224ZM70.8176 32.36C69.8576 32.36 68.9056 32.272 67.9616 32.096C67.0336 31.936 66.2736 31.712 65.6816 31.424V29.216C67.2176 29.936 68.8736 30.296 70.6496 30.296C73.1456 30.296 74.3936 29.456 74.3936 27.776C74.3936 27.2 74.2576 26.736 73.9856 26.384C73.7136 26.032 73.3216 25.728 72.8096 25.472C72.2976 25.2 71.4656 24.832 70.3136 24.368C68.7296 23.728 67.5856 23.024 66.8816 22.256C66.1776 21.488 65.8256 20.52 65.8256 19.352C65.8256 18.472 66.0656 17.696 66.5456 17.024C67.0256 16.336 67.6976 15.808 68.5616 15.44C69.4256 15.056 70.4176 14.864 71.5376 14.864C72.4496 14.864 73.2736 14.936 74.0096 15.08C74.7456 15.224 75.4656 15.456 76.1696 15.776V17.888C74.7776 17.264 73.3696 16.952 71.9456 16.952C70.7936 16.952 69.9136 17.16 69.3056 17.576C68.6976 17.992 68.3936 18.584 68.3936 19.352C68.3936 19.88 68.5216 20.328 68.7776 20.696C69.0496 21.048 69.4416 21.368 69.9536 21.656C70.4816 21.928 71.2576 22.272 72.2816 22.688C73.4176 23.152 74.3136 23.592 74.9696 24.008C75.6256 24.424 76.1216 24.936 76.4576 25.544C76.8096 26.136 76.9856 26.88 76.9856 27.776C76.9856 29.232 76.4656 30.36 75.4256 31.16C74.3856 31.96 72.8496 32.36 70.8176 32.36ZM79.6147 15.224H85.0147C86.8227 15.224 88.3907 15.56 89.7187 16.232C91.0467 16.904 92.0627 17.864 92.7667 19.112C93.4867 20.36 93.8467 21.832 93.8467 23.528C93.8467 26.312 93.0387 28.424 91.4227 29.864C89.8227 31.288 87.5747 32 84.6787 32H79.6147V15.224ZM84.6547 29.96C86.8947 29.96 88.5747 29.408 89.6947 28.304C90.8147 27.2 91.3747 25.608 91.3747 23.528C91.3747 21.608 90.8227 20.088 89.7187 18.968C88.6307 17.848 87.0707 17.288 85.0387 17.288H82.0627V29.96H84.6547ZM110.029 32.36C109.069 32.36 108.117 32.272 107.173 32.096C106.245 31.936 105.485 31.712 104.893 31.424V29.216C106.429 29.936 108.085 30.296 109.861 30.296C112.357 30.296 113.605 29.456 113.605 27.776C113.605 27.2 113.469 26.736 113.197 26.384C112.925 26.032 112.533 25.728 112.021 25.472C111.509 25.2 110.677 24.832 109.525 24.368C107.941 23.728 106.797 23.024 106.093 22.256C105.389 21.488 105.037 20.52 105.037 19.352C105.037 18.472 105.277 17.696 105.757 17.024C106.237 16.336 106.909 15.808 107.773 15.44C108.637 15.056 109.629 14.864 110.749 14.864C111.661 14.864 112.485 14.936 113.221 15.08C113.957 15.224 114.677 15.456 115.381 15.776V17.888C113.989 17.264 112.581 16.952 111.157 16.952C110.005 16.952 109.125 17.16 108.517 17.576C107.909 17.992 107.605 18.584 107.605 19.352C107.605 19.88 107.733 20.328 107.989 20.696C108.261 21.048 108.653 21.368 109.165 21.656C109.693 21.928 110.469 22.272 111.493 22.688C112.629 23.152 113.525 23.592 114.181 24.008C114.837 24.424 115.333 24.936 115.669 25.544C116.021 26.136 116.197 26.88 116.197 27.776C116.197 29.232 115.677 30.36 114.637 31.16C113.597 31.96 112.061 32.36 110.029 32.36ZM126.616 32.36C124.888 32.36 123.352 32 122.008 31.28C120.664 30.56 119.616 29.544 118.864 28.232C118.112 26.904 117.736 25.368 117.736 23.624C117.736 21.88 118.112 20.344 118.864 19.016C119.616 17.688 120.664 16.664 122.008 15.944C123.352 15.224 124.888 14.864 126.616 14.864C128.936 14.864 130.864 15.44 132.4 16.592V18.944C131.008 17.728 129.152 17.12 126.832 17.12C125.568 17.12 124.432 17.384 123.424 17.912C122.416 18.44 121.624 19.2 121.048 20.192C120.488 21.168 120.208 22.312 120.208 23.624C120.208 24.936 120.488 26.088 121.048 27.08C121.608 28.072 122.384 28.832 123.376 29.36C124.368 29.888 125.488 30.152 126.736 30.152C128.192 30.152 129.384 29.856 130.312 29.264V24.872H127.12V22.88H132.76V30.56C132.008 31.184 131.12 31.64 130.096 31.928C129.088 32.216 127.928 32.36 126.616 32.36ZM143.796 32.36C142.068 32.36 140.532 32 139.188 31.28C137.844 30.56 136.796 29.544 136.044 28.232C135.292 26.904 134.916 25.368 134.916 23.624C134.916 21.88 135.292 20.344 136.044 19.016C136.796 17.688 137.844 16.664 139.188 15.944C140.532 15.224 142.068 14.864 143.796 14.864C146.1 14.864 148.028 15.448 149.58 16.616V18.968C148.188 17.736 146.332 17.12 144.012 17.12C142.716 17.12 141.564 17.384 140.556 17.912C139.564 18.44 138.788 19.2 138.228 20.192C137.668 21.168 137.388 22.312 137.388 23.624C137.388 24.936 137.668 26.088 138.228 27.08C138.804 28.072 139.588 28.832 140.58 29.36C141.588 29.888 142.732 30.152 144.012 30.152C145.196 30.152 146.252 30 147.18 29.696C148.124 29.376 148.996 28.872 149.796 28.184V30.56C148.356 31.76 146.356 32.36 143.796 32.36ZM159.251 32.36C156.963 32.36 155.235 31.776 154.067 30.608C152.899 29.424 152.315 27.8 152.315 25.736V15.224H154.763V25.832C154.763 27.256 155.163 28.336 155.963 29.072C156.763 29.792 157.859 30.152 159.251 30.152C160.627 30.152 161.715 29.792 162.515 29.072C163.315 28.336 163.715 27.256 163.715 25.832V15.224H166.163V25.736C166.163 27.784 165.579 29.4 164.411 30.584C163.243 31.768 161.523 32.36 159.251 32.36Z" fill="#DE5C8E"/>
</svg>
