<svg width="380" height="644" viewBox="0 0 380 644" fill="none" xmlns="http://www.w3.org/2000/svg">
<rect x="0.5" y="0.5" width="379" height="643" rx="7.5" fill="white"/>
<path d="M71.424 93.72C68.576 93.72 66.272 93 64.512 91.56C62.784 90.12 61.92 88.088 61.92 85.464C61.92 83.736 62.352 82.216 63.216 80.904C64.112 79.592 65.36 78.568 66.96 77.832C68.592 77.096 70.496 76.728 72.672 76.728C75.776 76.728 78.464 77.256 80.736 78.312V77.16C80.736 75.176 80.144 73.72 78.96 72.792C77.808 71.832 75.936 71.352 73.344 71.352C71.776 71.352 70.224 71.512 68.688 71.832C67.184 72.152 65.872 72.584 64.752 73.128V68.376C65.776 67.896 67.184 67.48 68.976 67.128C70.8 66.776 72.576 66.6 74.304 66.6C78.464 66.6 81.584 67.544 83.664 69.432C85.744 71.32 86.784 73.848 86.784 77.016V93H80.736V83.112C78.592 82.024 76.144 81.48 73.392 81.48C71.6 81.48 70.256 81.832 69.36 82.536C68.496 83.208 68.064 84.2 68.064 85.512C68.064 86.696 68.464 87.576 69.264 88.152C70.064 88.696 71.328 88.968 73.056 88.968C74.144 88.968 75.088 88.808 75.888 88.488V93.144C74.704 93.528 73.216 93.72 71.424 93.72ZM91.5919 70.536H97.6879L103.304 88.248C105.992 88.248 108.056 87.496 109.496 85.992C110.968 84.456 111.704 82.28 111.704 79.464C111.704 76.744 111.208 74.712 110.216 73.368C109.224 72.024 107.64 71.352 105.464 71.352C104.28 71.352 103.176 71.512 102.152 71.832V67.176C103.4 66.792 104.856 66.6 106.52 66.6C110.264 66.6 113.096 67.736 115.016 70.008C116.968 72.28 117.944 75.432 117.944 79.464C117.944 82.28 117.32 84.712 116.072 86.76C114.856 88.808 113.208 90.36 111.128 91.416C109.048 92.472 106.744 93 104.216 93H98.6959L91.5919 70.536ZM122.739 67.32H128.595V70.488C129.811 69.208 131.219 68.248 132.819 67.608C134.451 66.936 136.083 66.6 137.715 66.6C140.883 66.6 143.299 67.496 144.963 69.288C146.627 71.048 147.459 73.32 147.459 76.104V93H141.363V76.392C141.363 73.032 139.571 71.352 135.987 71.352C132.883 71.352 130.499 72.664 128.835 75.288V93H122.739V67.32ZM156.424 77.688C154.888 77.688 153.8 77.336 153.16 76.632C152.552 75.928 152.248 74.84 152.248 73.368V70.296H157.72V72.264C157.72 72.744 157.816 73.08 158.008 73.272C158.232 73.464 158.6 73.56 159.112 73.56H164.776V77.688H156.424ZM156.424 90.696C154.888 90.696 153.8 90.344 153.16 89.64C152.552 88.936 152.248 87.848 152.248 86.376V83.304H157.72V85.272C157.72 85.752 157.816 86.088 158.008 86.28C158.232 86.472 158.6 86.568 159.112 86.568H164.776V90.696H156.424ZM174.704 93C173.04 93 171.76 92.536 170.864 91.608C170 90.648 169.568 89.32 169.568 87.624V67.32H175.664V85.704C175.664 86.536 175.84 87.112 176.192 87.432C176.544 87.752 177.12 87.912 177.92 87.912H179.6V93H174.704ZM197.244 93.72C194.684 93.72 192.428 93.256 190.476 92.328C188.556 91.4 187.068 90.12 186.012 88.488C184.988 86.824 184.476 84.936 184.476 82.824V67.32H190.572V82.584C190.572 84.6 191.132 86.168 192.252 87.288C193.372 88.408 195.036 88.968 197.244 88.968C199.42 88.968 201.068 88.408 202.188 87.288C203.308 86.168 203.868 84.6 203.868 82.584V67.32H209.964V82.824C209.964 84.936 209.436 86.824 208.38 88.488C207.356 90.12 205.884 91.4 203.964 92.328C202.044 93.256 199.804 93.72 197.244 93.72ZM188.619 59.928H204.603V54.744H210.075V63.816H188.619V59.928ZM227.403 93.72C223.595 93.72 220.539 92.984 218.235 91.512C215.931 90.04 214.779 87.96 214.779 85.272C214.779 83.96 215.163 82.776 215.931 81.72C216.699 80.664 217.691 79.928 218.907 79.512C217.755 78.968 216.811 78.184 216.075 77.16C215.371 76.136 215.019 74.984 215.019 73.704C215.019 71.56 215.755 69.848 217.227 68.568C218.699 67.256 220.875 66.6 223.755 66.6C224.651 66.6 225.515 66.664 226.347 66.792C227.179 66.888 227.835 67.016 228.315 67.176V71.928C227.899 71.736 227.355 71.592 226.683 71.496C226.043 71.4 225.467 71.352 224.955 71.352C222.491 71.352 221.259 72.264 221.259 74.088C221.259 75.08 221.563 75.816 222.171 76.296C222.779 76.776 223.755 77.016 225.099 77.016H228.315V81.96H225.099C222.379 81.96 221.019 83.064 221.019 85.272C221.019 86.424 221.579 87.336 222.699 88.008C223.851 88.648 225.419 88.968 227.403 88.968C229.899 88.968 231.723 88.456 232.875 87.432C234.059 86.408 234.651 84.904 234.651 82.92V67.272H240.747V82.824C240.747 84.648 240.299 86.392 239.403 88.056C238.539 89.688 237.099 91.048 235.083 92.136C233.099 93.192 230.539 93.72 227.403 93.72ZM256.473 93.72C254.393 93.72 252.601 93.304 251.097 92.472C249.593 91.608 248.441 90.44 247.641 88.968C246.873 87.464 246.489 85.8 246.489 83.976V67.32H252.585V83.688C252.585 87.208 254.457 88.968 258.201 88.968C261.145 88.968 263.449 87.656 265.113 85.032V67.32H271.209V93H265.353V89.832C264.137 91.112 262.745 92.088 261.177 92.76C259.641 93.4 258.073 93.72 256.473 93.72Z" fill="black"/>
<path d="M61.33 123.338L60.63 122.204C61.1247 121.579 61.6893 121.107 62.324 120.79C62.9587 120.463 63.71 120.3 64.578 120.3C65.698 120.3 66.5567 120.557 67.154 121.07C67.7513 121.574 68.05 122.283 68.05 123.198V128H66.622V123.31C66.622 122.666 66.4493 122.195 66.104 121.896C65.768 121.588 65.2593 121.434 64.578 121.434C64.0647 121.434 63.612 121.513 63.22 121.672C62.828 121.821 62.4733 122.064 62.156 122.4L62.758 123.338V128H61.33V123.338ZM72.4411 128.21C71.9277 128.21 71.4051 128.149 70.8731 128.028C70.3411 127.916 69.9257 127.748 69.6271 127.524V126.376C70.0284 126.619 70.4671 126.805 70.9431 126.936C71.4284 127.057 71.8904 127.118 72.3291 127.118C72.9451 127.118 73.3884 127.048 73.6591 126.908C73.9297 126.759 74.0651 126.507 74.0651 126.152C74.0651 125.909 73.9997 125.713 73.8691 125.564C73.7384 125.415 73.5377 125.284 73.2671 125.172C73.0057 125.06 72.5904 124.92 72.0211 124.752C71.1997 124.5 70.5884 124.206 70.1871 123.87C69.7857 123.525 69.5851 123.049 69.5851 122.442C69.5851 121.751 69.8511 121.224 70.3831 120.86C70.9151 120.487 71.6431 120.3 72.5671 120.3C73.0431 120.3 73.5004 120.356 73.9391 120.468C74.3871 120.571 74.7557 120.711 75.0451 120.888V122.064C74.7277 121.868 74.3637 121.714 73.9531 121.602C73.5424 121.49 73.1224 121.434 72.6931 121.434C71.5731 121.434 71.0131 121.77 71.0131 122.442C71.0131 122.694 71.0877 122.895 71.2371 123.044C71.3957 123.193 71.6011 123.319 71.8531 123.422C72.1144 123.515 72.5484 123.651 73.1551 123.828C73.7524 124.005 74.2191 124.197 74.5551 124.402C74.8911 124.607 75.1291 124.85 75.2691 125.13C75.4091 125.41 75.4791 125.755 75.4791 126.166C75.4791 126.782 75.2271 127.277 74.7231 127.65C74.2191 128.023 73.4584 128.21 72.4411 128.21ZM73.8935 130.254C73.8935 130.086 73.8655 129.969 73.8095 129.904C73.7441 129.848 73.6228 129.82 73.4455 129.82H72.9835V128.798H74.1315C74.5515 128.798 74.8361 128.882 74.9855 129.05C75.1255 129.218 75.1955 129.517 75.1955 129.946V131.682H73.8935V130.254ZM85.2055 128.21C84.3375 128.21 83.6608 127.958 83.1755 127.454C82.6901 126.941 82.4475 126.273 82.4475 125.452V123.31C82.4475 122.666 82.2888 122.195 81.9715 121.896C81.6635 121.588 81.1875 121.434 80.5435 121.434C80.0581 121.434 79.6335 121.509 79.2695 121.658C78.9148 121.807 78.5788 122.055 78.2615 122.4L78.8635 123.338V125.718C78.8635 126.147 78.9055 126.437 78.9895 126.586C79.0735 126.735 79.2648 126.81 79.5635 126.81H80.3475V128H78.8635C78.3968 128 78.0421 127.869 77.7995 127.608C77.5568 127.347 77.4355 126.987 77.4355 126.53V123.338L76.7355 122.204C77.2301 121.579 77.7808 121.107 78.3875 120.79C78.9941 120.463 79.7128 120.3 80.5435 120.3C81.6261 120.3 82.4475 120.557 83.0075 121.07C83.5768 121.574 83.8615 122.283 83.8615 123.198V125.396C83.8615 126.525 84.4355 127.09 85.5835 127.09C86.0315 127.09 86.4375 126.983 86.8015 126.768C87.1655 126.553 87.4688 126.231 87.7115 125.802V120.51H89.1395V128H87.7675V127.02C87.1421 127.813 86.2881 128.21 85.2055 128.21ZM93.5928 123.156C93.5928 122.559 93.4714 122.125 93.2288 121.854C92.9861 121.574 92.5568 121.434 91.9408 121.434C91.3434 121.434 90.7834 121.565 90.2608 121.826V120.706C90.4848 120.594 90.7741 120.501 91.1288 120.426C91.4928 120.342 91.8521 120.3 92.2068 120.3C93.1494 120.3 93.8541 120.557 94.3208 121.07C94.7874 121.574 95.0208 122.302 95.0208 123.254V128H93.5928V123.156ZM97.2597 123.338L96.5597 122.204C97.0544 121.579 97.619 121.107 98.2537 120.79C98.8884 120.463 99.6397 120.3 100.508 120.3C101.628 120.3 102.486 120.557 103.084 121.07C103.681 121.574 103.98 122.283 103.98 123.198V128H102.552V123.31C102.552 122.666 102.379 122.195 102.034 121.896C101.698 121.588 101.189 121.434 100.508 121.434C99.9944 121.434 99.5417 121.513 99.1497 121.672C98.7577 121.821 98.403 122.064 98.0857 122.4L98.6877 123.338V128H97.2597V123.338ZM108.371 128.21C107.857 128.21 107.335 128.149 106.803 128.028C106.271 127.916 105.855 127.748 105.557 127.524V126.376C105.958 126.619 106.397 126.805 106.873 126.936C107.358 127.057 107.82 127.118 108.259 127.118C108.875 127.118 109.318 127.048 109.589 126.908C109.859 126.759 109.995 126.507 109.995 126.152C109.995 125.909 109.929 125.713 109.799 125.564C109.668 125.415 109.467 125.284 109.197 125.172C108.935 125.06 108.52 124.92 107.951 124.752C107.129 124.5 106.518 124.206 106.117 123.87C105.715 123.525 105.515 123.049 105.515 122.442C105.515 121.751 105.781 121.224 106.313 120.86C106.845 120.487 107.573 120.3 108.497 120.3C108.973 120.3 109.43 120.356 109.869 120.468C110.317 120.571 110.685 120.711 110.975 120.888V122.064C110.657 121.868 110.293 121.714 109.883 121.602C109.472 121.49 109.052 121.434 108.623 121.434C107.503 121.434 106.943 121.77 106.943 122.442C106.943 122.694 107.017 122.895 107.167 123.044C107.325 123.193 107.531 123.319 107.783 123.422C108.044 123.515 108.478 123.651 109.085 123.828C109.682 124.005 110.149 124.197 110.485 124.402C110.821 124.607 111.059 124.85 111.199 125.13C111.339 125.41 111.409 125.755 111.409 126.166C111.409 126.782 111.157 127.277 110.653 127.65C110.149 128.023 109.388 128.21 108.371 128.21ZM115.717 128.21C115.138 128.21 114.578 128.14 114.037 128C113.496 127.869 113.038 127.683 112.665 127.44V123.716H115.773V124.864H114.093V126.726C114.494 126.969 115.036 127.09 115.717 127.09C116.613 127.09 117.294 126.843 117.761 126.348C118.237 125.853 118.475 125.135 118.475 124.192C118.475 123.249 118.232 122.554 117.747 122.106C117.271 121.658 116.487 121.434 115.395 121.434C114.9 121.434 114.415 121.485 113.939 121.588C113.463 121.681 113.062 121.835 112.735 122.05V120.916C113.099 120.711 113.528 120.557 114.023 120.454C114.518 120.351 115.05 120.3 115.619 120.3C117.019 120.3 118.088 120.641 118.825 121.322C119.562 122.003 119.931 122.96 119.931 124.192C119.931 125.433 119.562 126.413 118.825 127.132C118.097 127.851 117.061 128.21 115.717 128.21ZM121.896 123.338L121.196 122.204C121.691 121.579 122.256 121.107 122.89 120.79C123.525 120.463 124.276 120.3 125.144 120.3C126.264 120.3 127.123 120.557 127.72 121.07C128.318 121.574 128.616 122.283 128.616 123.198V128H127.188V123.31C127.188 122.666 127.016 122.195 126.67 121.896C126.334 121.588 125.826 121.434 125.144 121.434C124.631 121.434 124.178 121.513 123.786 121.672C123.394 121.821 123.04 122.064 122.722 122.4L123.324 123.338V128H121.896V123.338ZM133.511 128.21C132.839 128.21 132.256 128.093 131.761 127.86C131.267 127.627 130.884 127.3 130.613 126.88C130.352 126.451 130.221 125.961 130.221 125.41V124.934C130.221 124.617 130.287 124.327 130.417 124.066C130.548 123.805 130.739 123.501 130.991 123.156C131.169 122.923 131.299 122.731 131.383 122.582C131.467 122.423 131.509 122.274 131.509 122.134C131.509 121.957 131.463 121.831 131.369 121.756C131.285 121.681 131.141 121.644 130.935 121.644H130.151V120.51H131.621C132.032 120.51 132.354 120.631 132.587 120.874C132.83 121.107 132.951 121.42 132.951 121.812C132.951 122.083 132.895 122.335 132.783 122.568C132.671 122.792 132.503 123.067 132.279 123.394C132.055 123.73 131.892 124.001 131.789 124.206C131.696 124.411 131.649 124.635 131.649 124.878V125.396C131.649 125.937 131.803 126.357 132.111 126.656C132.429 126.945 132.895 127.09 133.511 127.09C134.127 127.09 134.585 126.941 134.883 126.642C135.182 126.334 135.331 125.905 135.331 125.354V120.51H136.759V125.116C136.759 126.077 136.475 126.833 135.905 127.384C135.336 127.935 134.538 128.21 133.511 128.21ZM133.75 118.522C133.75 118.41 133.731 118.331 133.694 118.284C133.647 118.237 133.568 118.214 133.456 118.214H132.826V117.206H133.876C134.175 117.206 134.394 117.281 134.534 117.43C134.665 117.57 134.73 117.747 134.73 117.962V118.452H137.6V119.404H133.75V118.522ZM141.352 128.21C140.773 128.21 140.213 128.14 139.672 128C139.131 127.869 138.673 127.683 138.3 127.44V123.716H141.408V124.864H139.728V126.726C140.129 126.969 140.671 127.09 141.352 127.09C142.248 127.09 142.929 126.843 143.396 126.348C143.872 125.853 144.11 125.135 144.11 124.192C144.11 123.249 143.867 122.554 143.382 122.106C142.906 121.658 142.122 121.434 141.03 121.434C140.535 121.434 140.05 121.485 139.574 121.588C139.098 121.681 138.697 121.835 138.37 122.05V120.916C138.734 120.711 139.163 120.557 139.658 120.454C140.153 120.351 140.685 120.3 141.254 120.3C142.654 120.3 143.723 120.641 144.46 121.322C145.197 122.003 145.566 122.96 145.566 124.192C145.566 125.433 145.197 126.413 144.46 127.132C143.732 127.851 142.696 128.21 141.352 128.21ZM151.185 128.21C150.672 128.21 150.182 128.107 149.715 127.902C149.258 127.697 148.847 127.393 148.483 126.992V128H147.111V120.51H148.539V125.802C149.09 126.661 149.846 127.09 150.807 127.09C151.414 127.09 151.871 126.95 152.179 126.67C152.497 126.381 152.655 125.956 152.655 125.396V120.51H154.083V125.452C154.083 126.264 153.827 126.927 153.313 127.44C152.8 127.953 152.091 128.21 151.185 128.21ZM152.346 131.794C151.768 131.794 151.32 131.673 151.002 131.43C150.676 131.187 150.512 130.861 150.512 130.45V130.072C150.512 129.941 150.494 129.853 150.456 129.806C150.419 129.769 150.34 129.75 150.218 129.75H149.742V128.798H150.974C151.226 128.798 151.399 128.854 151.492 128.966C151.586 129.078 151.632 129.26 151.632 129.512V130.31C151.632 130.721 151.856 130.926 152.304 130.926C152.743 130.926 152.962 130.721 152.962 130.31V128.798H154.082V130.408C154.082 130.819 153.933 131.15 153.634 131.402C153.326 131.663 152.897 131.794 152.346 131.794ZM158.338 128.21C157.508 128.21 156.845 128.005 156.35 127.594C155.865 127.174 155.622 126.581 155.622 125.816C155.622 125.06 155.893 124.458 156.434 124.01C156.985 123.562 157.727 123.338 158.66 123.338C159.584 123.338 160.415 123.511 161.152 123.856V123.282C161.152 122.638 160.975 122.171 160.62 121.882C160.275 121.583 159.696 121.434 158.884 121.434C158.436 121.434 157.998 121.476 157.568 121.56C157.139 121.644 156.766 121.761 156.448 121.91V120.79C156.738 120.65 157.13 120.533 157.624 120.44C158.128 120.347 158.618 120.3 159.094 120.3C160.261 120.3 161.134 120.566 161.712 121.098C162.291 121.63 162.58 122.349 162.58 123.254V128H161.152V124.99C160.471 124.645 159.692 124.472 158.814 124.472C158.208 124.472 157.76 124.584 157.47 124.808C157.19 125.032 157.05 125.368 157.05 125.816C157.05 126.665 157.596 127.09 158.688 127.09C159.024 127.09 159.318 127.043 159.57 126.95V128.056C159.234 128.159 158.824 128.21 158.338 128.21ZM165.862 128C165.405 128 165.055 127.874 164.812 127.622C164.579 127.361 164.462 126.997 164.462 126.53V122.736C164.462 122.26 164.546 121.863 164.714 121.546C164.882 121.219 165.125 120.869 165.442 120.496C165.657 120.253 165.811 120.048 165.904 119.88C166.007 119.712 166.058 119.535 166.058 119.348C166.058 119.04 165.974 118.816 165.806 118.676C165.647 118.536 165.367 118.466 164.966 118.466C164.397 118.466 163.883 118.625 163.426 118.942V117.822C163.697 117.663 164 117.542 164.336 117.458C164.681 117.374 165.036 117.332 165.4 117.332C166.109 117.332 166.637 117.505 166.982 117.85C167.337 118.195 167.514 118.643 167.514 119.194C167.514 119.493 167.449 119.759 167.318 119.992C167.197 120.216 167.01 120.477 166.758 120.776C166.469 121.121 166.249 121.429 166.1 121.7C165.96 121.971 165.89 122.302 165.89 122.694V126.138C165.89 126.39 165.941 126.567 166.044 126.67C166.147 126.763 166.324 126.81 166.576 126.81H167.08V128H165.862ZM168.631 120.51H170.059V123.814L173.685 120.51H175.351L173.307 122.372C174.072 122.568 174.604 122.881 174.903 123.31C175.211 123.739 175.365 124.313 175.365 125.032V128H173.937V125.116C173.937 124.556 173.82 124.131 173.587 123.842C173.363 123.553 172.971 123.347 172.411 123.226L170.059 125.368V128H168.631V120.51ZM172.359 118.522C172.359 118.41 172.341 118.331 172.303 118.284C172.257 118.237 172.177 118.214 172.065 118.214H171.435V117.206H172.485C172.784 117.206 173.003 117.281 173.143 117.43C173.274 117.57 173.339 117.747 173.339 117.962V118.452H176.209V119.404H172.359V118.522ZM177.189 123.366C177.189 122.395 177.507 121.644 178.141 121.112C178.776 120.571 179.649 120.3 180.759 120.3C181.861 120.3 182.729 120.566 183.363 121.098C183.998 121.63 184.315 122.386 184.315 123.366V128H182.887V123.324C182.887 122.689 182.701 122.218 182.327 121.91C181.954 121.593 181.431 121.434 180.759 121.434C180.078 121.434 179.551 121.593 179.177 121.91C178.804 122.218 178.617 122.689 178.617 123.324V124.752C178.739 124.528 178.93 124.351 179.191 124.22C179.453 124.08 179.761 124.01 180.115 124.01H181.235V125.186H180.003C179.611 125.186 179.28 125.326 179.009 125.606C178.748 125.877 178.617 126.189 178.617 126.544V128H177.189V123.366ZM188.707 128.21C188.193 128.21 187.671 128.149 187.139 128.028C186.607 127.916 186.191 127.748 185.893 127.524V126.376C186.294 126.619 186.733 126.805 187.209 126.936C187.694 127.057 188.156 127.118 188.595 127.118C189.211 127.118 189.654 127.048 189.925 126.908C190.195 126.759 190.331 126.507 190.331 126.152C190.331 125.909 190.265 125.713 190.135 125.564C190.004 125.415 189.803 125.284 189.533 125.172C189.271 125.06 188.856 124.92 188.287 124.752C187.465 124.5 186.854 124.206 186.453 123.87C186.051 123.525 185.851 123.049 185.851 122.442C185.851 121.751 186.117 121.224 186.649 120.86C187.181 120.487 187.909 120.3 188.833 120.3C189.309 120.3 189.766 120.356 190.205 120.468C190.653 120.571 191.021 120.711 191.311 120.888V122.064C190.993 121.868 190.629 121.714 190.219 121.602C189.808 121.49 189.388 121.434 188.959 121.434C187.839 121.434 187.279 121.77 187.279 122.442C187.279 122.694 187.353 122.895 187.503 123.044C187.661 123.193 187.867 123.319 188.119 123.422C188.38 123.515 188.814 123.651 189.421 123.828C190.018 124.005 190.485 124.197 190.821 124.402C191.157 124.607 191.395 124.85 191.535 125.13C191.675 125.41 191.745 125.755 191.745 126.166C191.745 126.782 191.493 127.277 190.989 127.65C190.485 128.023 189.724 128.21 188.707 128.21ZM196.879 128.21C196.151 128.21 195.516 128.079 194.975 127.818C194.434 127.557 194.014 127.193 193.715 126.726C193.426 126.25 193.281 125.709 193.281 125.102V120.51H194.709V125.074C194.709 125.699 194.891 126.194 195.255 126.558C195.628 126.913 196.17 127.09 196.879 127.09C197.579 127.09 198.111 126.913 198.475 126.558C198.848 126.194 199.035 125.699 199.035 125.074V120.51H200.463V125.102C200.463 125.709 200.314 126.25 200.015 126.726C199.726 127.193 199.31 127.557 198.769 127.818C198.228 128.079 197.598 128.21 196.879 128.21ZM204.125 128C203.659 128 203.304 127.869 203.061 127.608C202.819 127.347 202.697 126.987 202.697 126.53V123.338L201.997 122.204C202.492 121.579 203.057 121.107 203.691 120.79C204.326 120.463 205.077 120.3 205.945 120.3C207.065 120.3 207.924 120.557 208.521 121.07C209.119 121.574 209.417 122.283 209.417 123.198V128H207.989V123.31C207.989 122.666 207.817 122.195 207.471 121.896C207.135 121.588 206.627 121.434 205.945 121.434C205.423 121.434 204.97 121.509 204.587 121.658C204.205 121.807 203.85 122.055 203.523 122.4L204.125 123.338V126.11C204.125 126.371 204.177 126.553 204.279 126.656C204.391 126.759 204.573 126.81 204.825 126.81H205.609V128H204.125ZM206.402 118.522C206.402 118.41 206.384 118.331 206.346 118.284C206.3 118.237 206.22 118.214 206.108 118.214H205.478V117.206H206.528C206.827 117.206 207.046 117.281 207.186 117.43C207.317 117.57 207.382 117.747 207.382 117.962V118.452H210.252V119.404H206.402V118.522ZM213.682 128.21C212.506 128.21 211.596 128 210.952 127.58V126.432C211.578 126.871 212.394 127.09 213.402 127.09C214.317 127.09 215.026 126.852 215.53 126.376C216.044 125.9 216.3 125.195 216.3 124.262C216.3 123.329 216.044 122.624 215.53 122.148C215.026 121.672 214.317 121.434 213.402 121.434C212.422 121.434 211.615 121.653 210.98 122.092V120.93C211.634 120.51 212.534 120.3 213.682 120.3C214.942 120.3 215.936 120.65 216.664 121.35C217.392 122.041 217.756 123.011 217.756 124.262C217.756 125.513 217.392 126.483 216.664 127.174C215.936 127.865 214.942 128.21 213.682 128.21ZM222.197 128.21C221.282 128.21 220.568 127.953 220.055 127.44C219.551 126.927 219.299 126.264 219.299 125.452V120.51H220.727V125.396C220.727 125.956 220.881 126.381 221.189 126.67C221.506 126.95 221.968 127.09 222.575 127.09C223.536 127.09 224.292 126.661 224.843 125.802V120.51H226.271V128H224.885V126.992C224.185 127.804 223.289 128.21 222.197 128.21Z" fill="black"/>
<path d="M60 178C60 175.791 61.7909 174 64 174H316C318.209 174 320 175.791 320 178V202C320 204.209 318.209 206 316 206H64C61.7909 206 60 204.209 60 202V178Z" fill="white"/>
<path d="M78.608 195.24C77.8507 195.24 77.184 195.107 76.608 194.84C76.032 194.573 75.584 194.2 75.264 193.72C74.9547 193.229 74.8 192.669 74.8 192.04V191.496C74.8 191.133 74.88 190.797 75.04 190.488C75.2 190.168 75.4187 189.821 75.696 189.448C75.8987 189.171 76.0427 188.947 76.128 188.776C76.224 188.605 76.272 188.445 76.272 188.296C76.272 188.093 76.2187 187.949 76.112 187.864C76.016 187.779 75.8507 187.736 75.616 187.736H74.72V186.44H76.4C76.8693 186.44 77.2373 186.579 77.504 186.856C77.7813 187.123 77.92 187.48 77.92 187.928C77.92 188.237 77.856 188.525 77.728 188.792C77.6 189.048 77.408 189.363 77.152 189.736C76.896 190.12 76.7093 190.429 76.592 190.664C76.4853 190.899 76.432 191.155 76.432 191.432V192.024C76.432 192.632 76.624 193.107 77.008 193.448C77.392 193.789 77.9253 193.96 78.608 193.96C79.3333 193.96 79.8987 193.763 80.304 193.368C80.7093 192.973 80.912 192.392 80.912 191.624C80.912 190.856 80.752 190.28 80.432 189.896C80.112 189.512 79.6427 189.32 79.024 189.32V188.44L80.736 186.2H82.496L80.688 188.584C81.3387 188.829 81.808 189.208 82.096 189.72C82.3947 190.221 82.544 190.856 82.544 191.624C82.544 192.36 82.3787 193 82.048 193.544C81.728 194.088 81.2693 194.509 80.672 194.808C80.0747 195.096 79.3867 195.24 78.608 195.24ZM75.3917 184.104H78.6077V182.36H79.8077V184.104H81.1037V182.36H82.2878V185.176H75.3917V184.104ZM80.8157 179.704H82.2878V181.832H80.8157V179.704ZM87.5518 195.24C86.8904 195.24 86.2504 195.16 85.6318 195C85.0131 194.851 84.4904 194.637 84.0638 194.36V190.104H87.6158V191.416H85.6957V193.544C86.1544 193.821 86.7731 193.96 87.5518 193.96C88.5758 193.96 89.3544 193.677 89.8878 193.112C90.4318 192.547 90.7038 191.725 90.7038 190.648C90.7038 189.571 90.4264 188.776 89.8718 188.264C89.3278 187.752 88.4318 187.496 87.1838 187.496C86.6184 187.496 86.0638 187.555 85.5198 187.672C84.9758 187.779 84.5171 187.955 84.1438 188.2V186.904C84.5598 186.669 85.0504 186.493 85.6158 186.376C86.1811 186.259 86.7891 186.2 87.4398 186.2C89.0398 186.2 90.2611 186.589 91.1038 187.368C91.9464 188.147 92.3678 189.24 92.3678 190.648C92.3678 192.067 91.9464 193.187 91.1038 194.008C90.2718 194.829 89.0878 195.24 87.5518 195.24Z" fill="#B4B4B4"/>
<path d="M64 175H316V173H64V175ZM319 178V202H321V178H319ZM316 205H64V207H316V205ZM61 202V178H59V202H61ZM64 205C62.3431 205 61 203.657 61 202H59C59 204.761 61.2386 207 64 207V205ZM319 202C319 203.657 317.657 205 316 205V207C318.761 207 321 204.761 321 202H319ZM316 175C317.657 175 319 176.343 319 178H321C321 175.239 318.761 173 316 173V175ZM64 173C61.2386 173 59 175.239 59 178H61C61 176.343 62.3431 175 64 175V173Z" fill="#B4B4B4"/>
<path d="M60 241C60 238.791 61.7909 237 64 237H316C318.209 237 320 238.791 320 241V265C320 267.209 318.209 269 316 269H64C61.7909 269 60 267.209 60 265V241Z" fill="white"/>
<path d="M78.352 258.24C77.3067 258.24 76.4907 257.947 75.904 257.36C75.328 256.773 75.04 256.016 75.04 255.088V249.44H76.672V255.024C76.672 255.664 76.848 256.149 77.2 256.48C77.5627 256.8 78.0907 256.96 78.784 256.96C79.8827 256.96 80.7467 256.469 81.376 255.488V249.44H83.008V258H81.424V256.848C80.624 257.776 79.6 258.24 78.352 258.24ZM88.0949 252.464C88.0949 251.781 87.9562 251.285 87.6789 250.976C87.4015 250.656 86.9109 250.496 86.2069 250.496C85.5242 250.496 84.8842 250.645 84.2869 250.944V249.664C84.5429 249.536 84.8735 249.429 85.2789 249.344C85.6949 249.248 86.1055 249.2 86.5109 249.2C87.5882 249.2 88.3935 249.493 88.9269 250.08C89.4602 250.656 89.7269 251.488 89.7269 252.576V258H88.0949V252.464ZM96.4616 258.24C95.875 258.24 95.315 258.123 94.7816 257.888C94.259 257.653 93.7896 257.307 93.3736 256.848V258H91.8056V249.44H93.4376V255.488C94.067 256.469 94.931 256.96 96.0296 256.96C96.723 256.96 97.2456 256.8 97.5976 256.48C97.9603 256.149 98.1416 255.664 98.1416 255.024V249.44H99.7736V255.088C99.7736 256.016 99.4803 256.773 98.8936 257.36C98.307 257.947 97.4963 258.24 96.4616 258.24ZM104.637 258.24C103.687 258.24 102.93 258.005 102.365 257.536C101.81 257.056 101.533 256.379 101.533 255.504C101.533 254.64 101.842 253.952 102.461 253.44C103.09 252.928 103.938 252.672 105.005 252.672C106.061 252.672 107.01 252.869 107.853 253.264V252.608C107.853 251.872 107.65 251.339 107.245 251.008C106.85 250.667 106.189 250.496 105.261 250.496C104.749 250.496 104.247 250.544 103.757 250.64C103.266 250.736 102.839 250.869 102.477 251.04V249.76C102.807 249.6 103.255 249.467 103.821 249.36C104.397 249.253 104.957 249.2 105.501 249.2C106.461 249.2 107.261 249.376 107.901 249.728L108.717 248.8H110.525L108.909 250.608C109.293 251.152 109.485 251.808 109.485 252.576V258H107.853V254.56C107.074 254.165 106.183 253.968 105.181 253.968C104.487 253.968 103.975 254.096 103.645 254.352C103.325 254.608 103.164 254.992 103.164 255.504C103.164 256.475 103.788 256.96 105.036 256.96C105.421 256.96 105.757 256.907 106.045 256.8V258.064C105.661 258.181 105.191 258.24 104.637 258.24ZM112.286 252.672L111.486 251.376C112.051 250.661 112.696 250.123 113.422 249.76C114.147 249.387 115.006 249.2 115.998 249.2C117.278 249.2 118.259 249.493 118.942 250.08C119.624 250.656 119.966 251.467 119.966 252.512V258H118.334V252.64C118.334 251.904 118.136 251.365 117.742 251.024C117.358 250.672 116.776 250.496 115.998 250.496C115.411 250.496 114.894 250.587 114.446 250.768C113.998 250.939 113.592 251.216 113.23 251.6L113.918 252.672V258H112.286V252.672ZM118.472 260.576C118.472 260.384 118.44 260.251 118.376 260.176C118.301 260.112 118.163 260.08 117.96 260.08H117.432V258.912H118.744C119.224 258.912 119.549 259.008 119.72 259.2C119.88 259.392 119.96 259.733 119.96 260.224V262.208H118.472V260.576ZM124.824 258.24C123.875 258.24 123.117 258.005 122.552 257.536C121.997 257.056 121.72 256.379 121.72 255.504C121.72 254.64 122.029 253.952 122.648 253.44C123.277 252.928 124.125 252.672 125.192 252.672C126.248 252.672 127.197 252.869 128.04 253.264V252.608C128.04 251.872 127.837 251.339 127.432 251.008C127.037 250.667 126.376 250.496 125.448 250.496C124.936 250.496 124.435 250.544 123.944 250.64C123.453 250.736 123.027 250.869 122.664 251.04V249.76C122.995 249.6 123.443 249.467 124.008 249.36C124.584 249.253 125.144 249.2 125.688 249.2C127.021 249.2 128.019 249.504 128.68 250.112C129.341 250.72 129.672 251.541 129.672 252.576V258H128.04V254.56C127.261 254.165 126.371 253.968 125.368 253.968C124.675 253.968 124.163 254.096 123.832 254.352C123.512 254.608 123.352 254.992 123.352 255.504C123.352 256.475 123.976 256.96 125.224 256.96C125.608 256.96 125.944 256.907 126.232 256.8V258.064C125.848 258.181 125.379 258.24 124.824 258.24Z" fill="#B4B4B4"/>
<path d="M64 238H316V236H64V238ZM319 241V265H321V241H319ZM316 268H64V270H316V268ZM61 265V241H59V265H61ZM64 268C62.3431 268 61 266.657 61 265H59C59 267.761 61.2386 270 64 270V268ZM319 265C319 266.657 317.657 268 316 268V270C318.761 270 321 267.761 321 265H319ZM316 238C317.657 238 319 239.343 319 241H321C321 238.239 318.761 236 316 236V238ZM64 236C61.2386 236 59 238.239 59 241H61C61 239.343 62.3431 238 64 238V236Z" fill="#B4B4B4"/>
<path d="M60 304C60 301.791 61.7909 300 64 300H316C318.209 300 320 301.791 320 304V328C320 330.209 318.209 332 316 332H64C61.7909 332 60 330.209 60 328V304Z" fill="white"/>
<path d="M78.608 321.24C77.8507 321.24 77.184 321.107 76.608 320.84C76.032 320.573 75.584 320.2 75.264 319.72C74.9547 319.229 74.8 318.669 74.8 318.04V317.496C74.8 317.133 74.88 316.797 75.04 316.488C75.2 316.168 75.4187 315.821 75.696 315.448C75.8987 315.171 76.0427 314.947 76.128 314.776C76.224 314.605 76.272 314.445 76.272 314.296C76.272 314.093 76.2187 313.949 76.112 313.864C76.016 313.779 75.8507 313.736 75.616 313.736H74.72V312.44H76.4C76.8693 312.44 77.2373 312.579 77.504 312.856C77.7813 313.123 77.92 313.48 77.92 313.928C77.92 314.237 77.856 314.525 77.728 314.792C77.6 315.048 77.408 315.363 77.152 315.736C76.896 316.12 76.7093 316.429 76.592 316.664C76.4853 316.899 76.432 317.155 76.432 317.432V318.024C76.432 318.632 76.624 319.107 77.008 319.448C77.392 319.789 77.9253 319.96 78.608 319.96C79.3333 319.96 79.8987 319.763 80.304 319.368C80.7093 318.973 80.912 318.392 80.912 317.624C80.912 316.856 80.752 316.28 80.432 315.896C80.112 315.512 79.6427 315.32 79.024 315.32V314.44L80.736 312.2H82.496L80.688 314.584C81.3387 314.829 81.808 315.208 82.096 315.72C82.3947 316.221 82.544 316.856 82.544 317.624C82.544 318.36 82.3787 319 82.048 319.544C81.728 320.088 81.2693 320.509 80.672 320.808C80.0747 321.096 79.3867 321.24 78.608 321.24ZM75.3917 310.104H78.6077V308.36H79.8077V310.104H81.1037V308.36H82.2878V311.176H75.3917V310.104ZM80.8157 305.704H82.2878V307.832H80.8157V305.704ZM87.5518 321.24C86.8904 321.24 86.2504 321.16 85.6318 321C85.0131 320.851 84.4904 320.637 84.0638 320.36V316.104H87.6158V317.416H85.6957V319.544C86.1544 319.821 86.7731 319.96 87.5518 319.96C88.5758 319.96 89.3544 319.677 89.8878 319.112C90.4318 318.547 90.7038 317.725 90.7038 316.648C90.7038 315.571 90.4264 314.776 89.8718 314.264C89.3278 313.752 88.4318 313.496 87.1838 313.496C86.6184 313.496 86.0638 313.555 85.5198 313.672C84.9758 313.779 84.5171 313.955 84.1438 314.2V312.904C84.5598 312.669 85.0504 312.493 85.6158 312.376C86.1811 312.259 86.7891 312.2 87.4398 312.2C89.0398 312.2 90.2611 312.589 91.1038 313.368C91.9464 314.147 92.3678 315.24 92.3678 316.648C92.3678 318.067 91.9464 319.187 91.1038 320.008C90.2718 320.829 89.0878 321.24 87.5518 321.24ZM94.1338 314.184C94.1338 313.619 94.2831 313.187 94.5818 312.888C94.8804 312.589 95.3071 312.44 95.8618 312.44H97.1258V313.816H96.5498C96.2618 313.816 96.0538 313.88 95.9258 314.008C95.8084 314.125 95.7498 314.333 95.7498 314.632V318.616L97.8938 315.128H98.5978L100.742 318.616V312.44H102.358V321H100.886L98.2458 316.696L95.6058 321H94.1338V314.184ZM100.367 325.336C99.7053 325.336 99.1933 325.197 98.8306 324.92C98.4573 324.643 98.2706 324.269 98.2706 323.8V323.368C98.2706 323.219 98.2493 323.117 98.2066 323.064C98.164 323.021 98.0733 323 97.9346 323H97.3906V321.912H98.7986C99.0866 321.912 99.284 321.976 99.3906 322.104C99.4973 322.232 99.5506 322.44 99.5506 322.728V323.64C99.5506 324.109 99.8066 324.344 100.319 324.344C100.82 324.344 101.071 324.109 101.071 323.64V321.912H102.351V323.752C102.351 324.221 102.18 324.6 101.839 324.888C101.487 325.187 100.996 325.336 100.367 325.336ZM98.9106 310.168C98.9106 310.04 98.8893 309.949 98.8466 309.896C98.7933 309.843 98.7026 309.816 98.5746 309.816H97.8546V308.664H99.0546C99.396 308.664 99.6466 308.749 99.8066 308.92C99.956 309.08 100.031 309.283 100.031 309.528V310.088H103.311V311.176H98.9106V310.168ZM106.095 321C105.572 321 105.172 320.856 104.895 320.568C104.628 320.269 104.495 319.853 104.495 319.32V314.984C104.495 314.44 104.591 313.987 104.783 313.624C104.975 313.251 105.252 312.851 105.615 312.424C105.86 312.147 106.036 311.912 106.143 311.72C106.26 311.528 106.319 311.325 106.319 311.112C106.319 310.76 106.223 310.504 106.031 310.344C105.849 310.184 105.529 310.104 105.071 310.104C104.42 310.104 103.833 310.285 103.311 310.648V309.368C103.62 309.187 103.967 309.048 104.351 308.952C104.745 308.856 105.151 308.808 105.567 308.808C106.377 308.808 106.98 309.005 107.375 309.4C107.78 309.795 107.983 310.307 107.983 310.936C107.983 311.277 107.908 311.581 107.759 311.848C107.62 312.104 107.407 312.403 107.119 312.744C106.788 313.139 106.537 313.491 106.367 313.8C106.207 314.109 106.127 314.488 106.127 314.936V318.872C106.127 319.16 106.185 319.363 106.303 319.48C106.42 319.587 106.623 319.64 106.911 319.64H107.487V321H106.095ZM112.827 321.24C112.069 321.24 111.403 321.107 110.827 320.84C110.251 320.573 109.803 320.2 109.483 319.72C109.173 319.229 109.019 318.669 109.019 318.04V317.496C109.019 317.133 109.099 316.797 109.259 316.488C109.419 316.168 109.637 315.821 109.915 315.448C110.117 315.171 110.261 314.947 110.347 314.776C110.443 314.605 110.491 314.445 110.491 314.296C110.491 314.093 110.437 313.949 110.331 313.864C110.235 313.779 110.069 313.736 109.835 313.736H108.939V312.44H110.619C111.088 312.44 111.456 312.579 111.723 312.856C112 313.123 112.139 313.48 112.139 313.928C112.139 314.237 112.075 314.525 111.947 314.792C111.819 315.048 111.627 315.363 111.371 315.736C111.115 316.12 110.928 316.429 110.811 316.664C110.704 316.899 110.651 317.155 110.651 317.432V318.024C110.651 318.632 110.843 319.107 111.227 319.448C111.611 319.789 112.144 319.96 112.827 319.96C113.552 319.96 114.117 319.763 114.523 319.368C114.928 318.973 115.131 318.392 115.131 317.624C115.131 316.856 114.971 316.28 114.651 315.896C114.331 315.512 113.861 315.32 113.243 315.32V314.44L114.955 312.2H116.715L114.907 314.584C115.557 314.829 116.027 315.208 116.315 315.72C116.613 316.221 116.763 316.856 116.763 317.624C116.763 318.36 116.597 319 116.267 319.544C115.947 320.088 115.488 320.509 114.891 320.808C114.293 321.096 113.605 321.24 112.827 321.24ZM113.082 310.168C113.082 310.04 113.061 309.949 113.018 309.896C112.965 309.843 112.874 309.816 112.746 309.816H112.026V308.664H113.226C113.568 308.664 113.818 308.749 113.978 308.92C114.128 309.08 114.202 309.283 114.202 309.528V310.088H117.482V311.176H113.082V310.168Z" fill="#B4B4B4"/>
<path d="M64 301H316V299H64V301ZM319 304V328H321V304H319ZM316 331H64V333H316V331ZM61 328V304H59V328H61ZM64 331C62.3431 331 61 329.657 61 328H59C59 330.761 61.2386 333 64 333V331ZM319 328C319 329.657 317.657 331 316 331V333C318.761 333 321 330.761 321 328H319ZM316 301C317.657 301 319 302.343 319 304H321C321 301.239 318.761 299 316 299V301ZM64 299C61.2386 299 59 301.239 59 304H61C61 302.343 62.3431 301 64 301V299Z" fill="#B4B4B4"/>
<path d="M60 367C60 364.791 61.7909 363 64 363H316C318.209 363 320 364.791 320 367V391C320 393.209 318.209 395 316 395H64C61.7909 395 60 393.209 60 391V367Z" fill="white"/>
<path d="M78.208 384.24C77.5467 384.24 76.9067 384.16 76.288 384C75.6693 383.851 75.1467 383.637 74.72 383.36V379.104H78.272V380.416H76.352V382.544C76.8107 382.821 77.4293 382.96 78.208 382.96C79.232 382.96 80.0107 382.677 80.544 382.112C81.088 381.547 81.36 380.725 81.36 379.648C81.36 378.571 81.0827 377.776 80.528 377.264C79.984 376.752 79.088 376.496 77.84 376.496C77.2747 376.496 76.72 376.555 76.176 376.672C75.632 376.779 75.1733 376.955 74.8 377.2V375.904C75.216 375.669 75.7067 375.493 76.272 375.376C76.8373 375.259 77.4453 375.2 78.096 375.2C79.696 375.2 80.9173 375.589 81.76 376.368C82.6027 377.147 83.024 378.24 83.024 379.648C83.024 381.067 82.6027 382.187 81.76 383.008C80.928 383.829 79.744 384.24 78.208 384.24ZM75.782 373.072H81.206V371.36H82.694V374.176H75.782V373.072ZM86.39 384C85.8673 384 85.4673 383.856 85.19 383.568C84.9233 383.269 84.79 382.853 84.79 382.32V375.44H86.422V381.872C86.422 382.16 86.4807 382.363 86.598 382.48C86.7153 382.587 86.918 382.64 87.206 382.64H87.782V384H86.39ZM94.196 384.24C93.6093 384.24 93.0493 384.123 92.516 383.888C91.9933 383.653 91.524 383.307 91.108 382.848V384H89.54V375.44H91.172V381.488C91.8013 382.469 92.6653 382.96 93.764 382.96C94.4573 382.96 94.98 382.8 95.332 382.48C95.6947 382.149 95.876 381.664 95.876 381.024V375.44H97.508V381.088C97.508 382.016 97.2147 382.773 96.628 383.36C96.0413 383.947 95.2307 384.24 94.196 384.24ZM102.371 384.24C101.422 384.24 100.664 384.005 100.099 383.536C99.5442 383.056 99.2669 382.379 99.2669 381.504C99.2669 380.64 99.5762 379.952 100.195 379.44C100.824 378.928 101.672 378.672 102.739 378.672C103.795 378.672 104.744 378.869 105.587 379.264V378.608C105.587 377.872 105.384 377.339 104.979 377.008C104.584 376.667 103.923 376.496 102.995 376.496C102.483 376.496 101.982 376.544 101.491 376.64C101 376.736 100.574 376.869 100.211 377.04V375.76C100.542 375.6 100.99 375.467 101.555 375.36C102.131 375.253 102.691 375.2 103.235 375.2C104.568 375.2 105.566 375.504 106.227 376.112C106.888 376.72 107.219 377.541 107.219 378.576V384H105.587V380.56C104.808 380.165 103.918 379.968 102.915 379.968C102.222 379.968 101.71 380.096 101.379 380.352C101.059 380.608 100.899 380.992 100.899 381.504C100.899 382.475 101.523 382.96 102.771 382.96C103.155 382.96 103.491 382.907 103.779 382.8V384.064C103.395 384.181 102.926 384.24 102.371 384.24Z" fill="#B4B4B4"/>
<path d="M64 364H316V362H64V364ZM319 367V391H321V367H319ZM316 394H64V396H316V394ZM61 391V367H59V391H61ZM64 394C62.3431 394 61 392.657 61 391H59C59 393.761 61.2386 396 64 396V394ZM319 391C319 392.657 317.657 394 316 394V396C318.761 396 321 393.761 321 391H319ZM316 364C317.657 364 319 365.343 319 367H321C321 364.239 318.761 362 316 362V364ZM64 362C61.2386 362 59 364.239 59 367H61C61 365.343 62.3431 364 64 364V362Z" fill="#B4B4B4"/>
<path d="M60 430C60 427.791 61.7909 426 64 426H316C318.209 426 320 427.791 320 430V454C320 456.209 318.209 458 316 458H64C61.7909 458 60 456.209 60 454V430Z" fill="white"/>
<path d="M77.984 447.24C77.3973 447.24 76.8 447.171 76.192 447.032C75.584 446.904 75.1093 446.712 74.768 446.456V445.144C75.2267 445.421 75.728 445.635 76.272 445.784C76.8267 445.923 77.3547 445.992 77.856 445.992C78.56 445.992 79.0667 445.912 79.376 445.752C79.6853 445.581 79.84 445.293 79.84 444.888C79.84 444.611 79.7653 444.387 79.616 444.216C79.4667 444.045 79.2373 443.896 78.928 443.768C78.6293 443.64 78.1547 443.48 77.504 443.288C76.5653 443 75.8667 442.664 75.408 442.28C74.9493 441.885 74.72 441.341 74.72 440.648C74.72 439.859 75.024 439.256 75.632 438.84C76.24 438.413 77.072 438.2 78.128 438.2C78.672 438.2 79.1947 438.264 79.696 438.392C80.208 438.509 80.6293 438.669 80.96 438.872V440.216C80.5973 439.992 80.1813 439.816 79.712 439.688C79.2427 439.56 78.7627 439.496 78.272 439.496C76.992 439.496 76.352 439.88 76.352 440.648C76.352 440.936 76.4373 441.165 76.608 441.336C76.7893 441.507 77.024 441.651 77.312 441.768C77.6107 441.875 78.1067 442.029 78.8 442.232C79.4827 442.435 80.016 442.653 80.4 442.888C80.784 443.123 81.056 443.4 81.216 443.72C81.376 444.04 81.456 444.435 81.456 444.904C81.456 445.608 81.168 446.173 80.592 446.6C80.016 447.027 79.1467 447.24 77.984 447.24ZM83.2119 438.44H84.8439V442.216L88.9879 438.44H90.8919L88.5559 440.568C89.4305 440.792 90.0385 441.149 90.3799 441.64C90.7319 442.131 90.9079 442.787 90.9079 443.608V447H89.2759V443.704C89.2759 443.064 89.1425 442.579 88.8759 442.248C88.6199 441.917 88.1719 441.683 87.5319 441.544L84.8439 443.992V447H83.2119V438.44ZM87.9051 437.176C87.4465 437.176 87.1158 437.064 86.9131 436.84C86.6998 436.605 86.5931 436.259 86.5931 435.8V434.968H88.0651V435.608C88.0651 435.789 88.1025 435.912 88.1771 435.976C88.2411 436.04 88.3691 436.072 88.5611 436.072H92.3371V437.176H87.9051ZM95.7771 447.24C94.8278 447.24 94.0705 447.005 93.5051 446.536C92.9505 446.056 92.6731 445.379 92.6731 444.504C92.6731 443.64 92.9825 442.952 93.6011 442.44C94.2305 441.928 95.0785 441.672 96.1451 441.672C97.2011 441.672 98.1505 441.869 98.9931 442.264V441.608C98.9931 440.872 98.7905 440.339 98.3851 440.008C97.9905 439.667 97.3291 439.496 96.4011 439.496C95.8891 439.496 95.3878 439.544 94.8971 439.64C94.4065 439.736 93.9798 439.869 93.6171 440.04V438.76C93.9478 438.6 94.3958 438.467 94.9611 438.36C95.5371 438.253 96.0971 438.2 96.6411 438.2C97.6011 438.2 98.4011 438.376 99.0411 438.728L99.8571 437.8H101.665L100.049 439.608C100.433 440.152 100.625 440.808 100.625 441.576V447H98.9931V443.56C98.2145 443.165 97.3238 442.968 96.3211 442.968C95.6278 442.968 95.1158 443.096 94.7851 443.352C94.4651 443.608 94.3051 443.992 94.3051 444.504C94.3051 445.475 94.9291 445.96 96.1771 445.96C96.5611 445.96 96.8971 445.907 97.1851 445.8V447.064C96.8011 447.181 96.3318 447.24 95.7771 447.24ZM102.946 440.184C102.946 439.619 103.096 439.187 103.394 438.888C103.693 438.589 104.12 438.44 104.674 438.44H105.938V439.816H105.362C105.074 439.816 104.866 439.88 104.738 440.008C104.621 440.125 104.562 440.333 104.562 440.632V444.616L106.706 441.128H107.41L109.554 444.616V438.44H111.17V447H109.698L107.058 442.696L104.418 447H102.946V440.184ZM109.579 434.504H111.195V437.176H109.579V434.504ZM116.251 441.464C116.251 440.781 116.112 440.285 115.835 439.976C115.558 439.656 115.067 439.496 114.363 439.496C113.68 439.496 113.04 439.645 112.443 439.944V438.664C112.699 438.536 113.03 438.429 113.435 438.344C113.851 438.248 114.262 438.2 114.667 438.2C115.744 438.2 116.55 438.493 117.083 439.08C117.616 439.656 117.883 440.488 117.883 441.576V447H116.251V441.464ZM123.274 447.24C122.229 447.24 121.413 446.947 120.826 446.36C120.25 445.773 119.962 445.016 119.962 444.088V438.44H121.594V444.024C121.594 444.664 121.77 445.149 122.122 445.48C122.485 445.8 123.013 445.96 123.706 445.96C124.805 445.96 125.669 445.469 126.298 444.488V438.44H127.93V447H126.346V445.848C125.546 446.776 124.522 447.24 123.274 447.24Z" fill="#B4B4B4"/>
<path d="M64 427H316V425H64V427ZM319 430V454H321V430H319ZM316 457H64V459H316V457ZM61 454V430H59V454H61ZM64 457C62.3431 457 61 455.657 61 454H59C59 456.761 61.2386 459 64 459V457ZM319 454C319 455.657 317.657 457 316 457V459C318.761 459 321 456.761 321 454H319ZM316 427C317.657 427 319 428.343 319 430H321C321 427.239 318.761 425 316 425V427ZM64 425C61.2386 425 59 427.239 59 430H61C61 428.343 62.3431 427 64 427V425Z" fill="#B4B4B4"/>
<path d="M60 493C60 490.791 61.7909 489 64 489H316C318.209 489 320 490.791 320 493V517C320 519.209 318.209 521 316 521H64C61.7909 521 60 519.209 60 517V493Z" fill="white"/>
<path d="M78.784 510.24C77.5467 510.24 76.56 510.005 75.824 509.536C75.088 509.067 74.72 508.384 74.72 507.488C74.72 507.019 74.848 506.608 75.104 506.256C75.3707 505.893 75.7227 505.643 76.16 505.504C75.744 505.323 75.408 505.061 75.152 504.72C74.9067 504.379 74.784 503.984 74.784 503.536C74.784 502.832 75.0187 502.267 75.488 501.84C75.9573 501.413 76.6453 501.2 77.552 501.2C77.808 501.2 78.0693 501.221 78.336 501.264C78.6027 501.296 78.816 501.333 78.976 501.376V502.656C78.8373 502.603 78.656 502.565 78.432 502.544C78.2187 502.512 78.0213 502.496 77.84 502.496C77.3813 502.496 77.0293 502.597 76.784 502.8C76.5493 502.992 76.432 503.269 76.432 503.632C76.432 504.016 76.56 504.309 76.816 504.512C77.072 504.715 77.4507 504.816 77.952 504.816H78.976V506.16H77.968C77.456 506.16 77.0613 506.272 76.784 506.496C76.5067 506.709 76.368 507.04 76.368 507.488C76.368 507.957 76.5813 508.32 77.008 508.576C77.4453 508.832 78.0373 508.96 78.784 508.96C80.544 508.96 81.424 508.213 81.424 506.72V501.44H83.056V506.688C83.056 507.285 82.9173 507.856 82.64 508.4C82.3627 508.933 81.904 509.376 81.264 509.728C80.6347 510.069 79.808 510.24 78.784 510.24ZM76.1417 499.104H79.3577V497.36H80.5577V499.104H81.8537V497.36H83.0378V500.176H76.1417V499.104ZM88.4458 510.24C87.4004 510.24 86.5844 509.947 85.9978 509.36C85.4218 508.773 85.1338 508.016 85.1338 507.088V501.44H86.7658V507.024C86.7658 507.664 86.9418 508.149 87.2938 508.48C87.6564 508.8 88.1844 508.96 88.8778 508.96C89.9764 508.96 90.8404 508.469 91.4698 507.488V501.44H93.1018V510H91.5178V508.848C90.7178 509.776 89.6938 510.24 88.4458 510.24ZM98.9246 510.24C97.6873 510.24 96.7006 510.005 95.9646 509.536C95.2286 509.067 94.8606 508.384 94.8606 507.488C94.8606 507.019 94.9886 506.608 95.2446 506.256C95.5113 505.893 95.8633 505.643 96.3006 505.504C95.8846 505.323 95.5486 505.061 95.2926 504.72C95.0473 504.379 94.9246 503.984 94.9246 503.536C94.9246 502.832 95.1593 502.267 95.6286 501.84C96.098 501.413 96.786 501.2 97.6926 501.2C97.9486 501.2 98.21 501.221 98.4766 501.264C98.7433 501.296 98.9566 501.333 99.1166 501.376V502.656C98.978 502.603 98.7966 502.565 98.5726 502.544C98.3593 502.512 98.162 502.496 97.9806 502.496C97.522 502.496 97.17 502.597 96.9246 502.8C96.69 502.992 96.5726 503.269 96.5726 503.632C96.5726 504.016 96.7006 504.309 96.9566 504.512C97.2126 504.715 97.5913 504.816 98.0926 504.816H99.1166V506.16H98.1086C97.5966 506.16 97.202 506.272 96.9246 506.496C96.6473 506.709 96.5086 507.04 96.5086 507.488C96.5086 507.957 96.722 508.32 97.1486 508.576C97.586 508.832 98.178 508.96 98.9246 508.96C100.685 508.96 101.565 508.213 101.565 506.72V501.44H103.197V506.688C103.197 507.285 103.058 507.856 102.781 508.4C102.503 508.933 102.045 509.376 101.405 509.728C100.775 510.069 99.9486 510.24 98.9246 510.24ZM100.186 500.176C99.7277 500.176 99.397 500.064 99.1944 499.84C98.981 499.605 98.8744 499.259 98.8744 498.8V497.968H100.346V498.608C100.346 498.789 100.384 498.912 100.458 498.976C100.522 499.04 100.65 499.072 100.842 499.072H104.618V500.176H100.186ZM108.586 510.24C107.541 510.24 106.725 509.947 106.138 509.36C105.562 508.773 105.274 508.016 105.274 507.088V501.44H106.906V507.024C106.906 507.664 107.082 508.149 107.434 508.48C107.797 508.8 108.325 508.96 109.018 508.96C110.117 508.96 110.981 508.469 111.61 507.488V501.44H113.242V510H111.658V508.848C110.858 509.776 109.834 510.24 108.586 510.24ZM118.265 510.24C117.679 510.24 117.081 510.171 116.473 510.032C115.865 509.904 115.391 509.712 115.049 509.456V508.144C115.508 508.421 116.009 508.635 116.553 508.784C117.108 508.923 117.636 508.992 118.137 508.992C118.841 508.992 119.348 508.912 119.657 508.752C119.967 508.581 120.121 508.293 120.121 507.888C120.121 507.611 120.047 507.387 119.897 507.216C119.748 507.045 119.519 506.896 119.209 506.768C118.911 506.64 118.436 506.48 117.785 506.288C116.847 506 116.148 505.664 115.689 505.28C115.231 504.885 115.001 504.341 115.001 503.648C115.001 502.859 115.305 502.256 115.913 501.84C116.521 501.413 117.353 501.2 118.409 501.2C118.953 501.2 119.476 501.264 119.977 501.392C120.489 501.509 120.911 501.669 121.241 501.872V503.216C120.879 502.992 120.463 502.816 119.993 502.688C119.524 502.56 119.044 502.496 118.553 502.496C117.273 502.496 116.633 502.88 116.633 503.648C116.633 503.936 116.719 504.165 116.889 504.336C117.071 504.507 117.305 504.651 117.593 504.768C117.892 504.875 118.388 505.029 119.081 505.232C119.764 505.435 120.297 505.653 120.681 505.888C121.065 506.123 121.337 506.4 121.497 506.72C121.657 507.04 121.737 507.435 121.737 507.904C121.737 508.608 121.449 509.173 120.873 509.6C120.297 510.027 119.428 510.24 118.265 510.24ZM123.493 501.44H125.125V505.216L129.269 501.44H131.173L128.837 503.568C129.712 503.792 130.32 504.149 130.661 504.64C131.013 505.131 131.189 505.787 131.189 506.608V510H129.557V506.704C129.557 506.064 129.424 505.579 129.157 505.248C128.901 504.917 128.453 504.683 127.813 504.544L125.125 506.992V510H123.493V501.44ZM128.186 500.176C127.728 500.176 127.397 500.064 127.194 499.84C126.981 499.605 126.874 499.259 126.874 498.8V497.968H128.346V498.608C128.346 498.789 128.384 498.912 128.458 498.976C128.522 499.04 128.65 499.072 128.842 499.072H132.618V500.176H128.186ZM136.058 510.24C135.109 510.24 134.352 510.005 133.786 509.536C133.232 509.056 132.954 508.379 132.954 507.504C132.954 506.64 133.264 505.952 133.882 505.44C134.512 504.928 135.36 504.672 136.426 504.672C137.482 504.672 138.432 504.869 139.274 505.264V504.608C139.274 503.872 139.072 503.339 138.666 503.008C138.272 502.667 137.61 502.496 136.682 502.496C136.17 502.496 135.669 502.544 135.178 502.64C134.688 502.736 134.261 502.869 133.898 503.04V501.76C134.229 501.6 134.677 501.467 135.242 501.36C135.818 501.253 136.378 501.2 136.922 501.2C137.882 501.2 138.682 501.376 139.322 501.728L140.138 500.8H141.946L140.33 502.608C140.714 503.152 140.906 503.808 140.906 504.576V510H139.274V506.56C138.496 506.165 137.605 505.968 136.602 505.968C135.909 505.968 135.397 506.096 135.066 506.352C134.746 506.608 134.586 506.992 134.586 507.504C134.586 508.475 135.21 508.96 136.458 508.96C136.842 508.96 137.178 508.907 137.466 508.8V510.064C137.082 510.181 136.613 510.24 136.058 510.24ZM143.228 503.184C143.228 502.619 143.377 502.187 143.676 501.888C143.974 501.589 144.401 501.44 144.956 501.44H146.22V502.816H145.644C145.356 502.816 145.148 502.88 145.02 503.008C144.902 503.125 144.844 503.333 144.844 503.632V507.616L146.988 504.128H147.692L149.836 507.616V501.44H151.452V510H149.98L147.34 505.696L144.7 510H143.228V503.184ZM149.86 497.504H151.476V500.176H149.86V497.504ZM156.532 504.464C156.532 503.781 156.394 503.285 156.116 502.976C155.839 502.656 155.348 502.496 154.644 502.496C153.962 502.496 153.322 502.645 152.724 502.944V501.664C152.98 501.536 153.311 501.429 153.716 501.344C154.132 501.248 154.543 501.2 154.948 501.2C156.026 501.2 156.831 501.493 157.364 502.08C157.898 502.656 158.164 503.488 158.164 504.576V510H156.532V504.464ZM163.555 510.24C162.51 510.24 161.694 509.947 161.107 509.36C160.531 508.773 160.243 508.016 160.243 507.088V501.44H161.875V507.024C161.875 507.664 162.051 508.149 162.403 508.48C162.766 508.8 163.294 508.96 163.987 508.96C165.086 508.96 165.95 508.469 166.579 507.488V501.44H168.211V510H166.627V508.848C165.827 509.776 164.803 510.24 163.555 510.24Z" fill="#B4B4B4"/>
<path d="M64 490H316V488H64V490ZM319 493V517H321V493H319ZM316 520H64V522H316V520ZM61 517V493H59V517H61ZM64 520C62.3431 520 61 518.657 61 517H59C59 519.761 61.2386 522 64 522V520ZM319 517C319 518.657 317.657 520 316 520V522C318.761 522 321 519.761 321 517H319ZM316 490C317.657 490 319 491.343 319 493H321C321 490.239 318.761 488 316 488V490ZM64 488C61.2386 488 59 490.239 59 493H61C61 491.343 62.3431 490 64 490V488Z" fill="#B4B4B4"/>
<rect x="60" y="552" width="260" height="32" rx="4" fill="#DE5C8E"/>
<path d="M167.644 573.24C167.004 573.24 166.369 573.181 165.74 573.064C165.121 572.957 164.615 572.808 164.22 572.616V571.144C165.244 571.624 166.348 571.864 167.532 571.864C169.196 571.864 170.028 571.304 170.028 570.184C170.028 569.8 169.937 569.491 169.756 569.256C169.575 569.021 169.313 568.819 168.972 568.648C168.631 568.467 168.076 568.221 167.308 567.912C166.252 567.485 165.489 567.016 165.02 566.504C164.551 565.992 164.316 565.347 164.316 564.568C164.316 563.981 164.476 563.464 164.796 563.016C165.116 562.557 165.564 562.205 166.14 561.96C166.716 561.704 167.377 561.576 168.124 561.576C168.732 561.576 169.281 561.624 169.772 561.72C170.263 561.816 170.743 561.971 171.212 562.184V563.592C170.284 563.176 169.345 562.968 168.396 562.968C167.628 562.968 167.041 563.107 166.636 563.384C166.231 563.661 166.028 564.056 166.028 564.568C166.028 564.92 166.113 565.219 166.284 565.464C166.465 565.699 166.727 565.912 167.068 566.104C167.42 566.285 167.937 566.515 168.62 566.792C169.377 567.101 169.975 567.395 170.412 567.672C170.849 567.949 171.18 568.291 171.404 568.696C171.639 569.091 171.756 569.587 171.756 570.184C171.756 571.155 171.409 571.907 170.716 572.44C170.023 572.973 168.999 573.24 167.644 573.24ZM176.33 573.24C175.296 573.24 174.512 572.963 173.978 572.408C173.456 571.853 173.194 571.112 173.194 570.184V565.32H174.81V570.12C174.81 571.347 175.424 571.96 176.65 571.96C177.728 571.96 178.57 571.475 179.178 570.504V565.32H180.794V573H179.226V571.912C178.864 572.371 178.432 572.707 177.93 572.92C177.44 573.133 176.906 573.24 176.33 573.24ZM187.636 573.24C186.943 573.24 186.34 573.133 185.828 572.92C185.327 572.696 184.863 572.349 184.436 571.88V573H182.868V561.176H184.484V566.344C184.836 565.928 185.289 565.613 185.844 565.4C186.399 565.187 186.996 565.08 187.636 565.08C188.404 565.08 189.092 565.256 189.7 565.608C190.319 565.949 190.799 566.429 191.14 567.048C191.492 567.667 191.668 568.376 191.668 569.176C191.668 569.987 191.492 570.701 191.14 571.32C190.799 571.928 190.319 572.403 189.7 572.744C189.092 573.075 188.404 573.24 187.636 573.24ZM187.268 571.96C187.791 571.96 188.26 571.848 188.676 571.624C189.103 571.389 189.433 571.059 189.668 570.632C189.913 570.205 190.036 569.72 190.036 569.176C190.036 568.632 189.913 568.147 189.668 567.72C189.433 567.293 189.103 566.963 188.676 566.728C188.26 566.493 187.791 566.376 187.268 566.376C186.617 566.376 186.036 566.552 185.524 566.904C185.012 567.256 184.665 567.725 184.484 568.312V570.04C184.687 570.627 185.033 571.096 185.524 571.448C186.025 571.789 186.607 571.96 187.268 571.96ZM193.431 565.32H194.967V566.424C195.329 565.976 195.74 565.64 196.199 565.416C196.657 565.192 197.132 565.08 197.623 565.08C198.241 565.08 198.732 565.187 199.095 565.4C199.457 565.603 199.724 565.917 199.895 566.344C200.236 565.928 200.652 565.613 201.143 565.4C201.644 565.187 202.145 565.08 202.647 565.08C203.585 565.08 204.263 565.32 204.679 565.8C205.095 566.269 205.303 566.968 205.303 567.896V573H203.735V568.104C203.735 567.475 203.617 567.032 203.383 566.776C203.148 566.509 202.748 566.376 202.183 566.376C201.372 566.376 200.711 566.728 200.199 567.432C200.22 567.592 200.231 567.853 200.231 568.216V573H198.663V568.104C198.663 567.475 198.556 567.032 198.343 566.776C198.129 566.509 197.745 566.376 197.191 566.376C196.38 566.376 195.655 566.835 195.015 567.752V573H193.431V565.32ZM208.25 563.816C207.983 563.816 207.759 563.725 207.578 563.544C207.396 563.363 207.306 563.139 207.306 562.872C207.306 562.605 207.396 562.381 207.578 562.2C207.759 562.019 207.983 561.928 208.25 561.928C208.527 561.928 208.756 562.019 208.938 562.2C209.13 562.381 209.226 562.605 209.226 562.872C209.226 563.139 209.13 563.363 208.938 563.544C208.756 563.725 208.527 563.816 208.25 563.816ZM207.434 565.32H209.082V573H207.434V565.32ZM214.266 573.24C213.487 573.24 212.884 573.016 212.458 572.568C212.042 572.12 211.834 571.485 211.834 570.664V566.568H210.666V565.32H211.834V563.016H213.466V565.32H215.354V566.568H213.466V570.552C213.466 571.064 213.562 571.427 213.754 571.64C213.956 571.853 214.319 571.96 214.842 571.96C215.151 571.96 215.46 571.891 215.77 571.752V573.032C215.364 573.171 214.863 573.24 214.266 573.24Z" fill="white"/>
<rect x="0.5" y="0.5" width="379" height="643" rx="7.5" stroke="#DE5C8E"/>
</svg>
