<svg width="1440" height="80" viewBox="0 0 1440 80" fill="none" xmlns="http://www.w3.org/2000/svg">
<rect width="1440" height="80" fill="white"/>
<path d="M179.227 56.0234C179.156 55.5564 179.083 55.117 179.03 54.6749C179.024 54.6223 179.113 54.5266 179.176 54.5019C179.432 54.402 179.697 54.326 179.955 54.2322C180.03 54.2053 180.094 54.1478 180.162 54.1044C180.101 54.0524 180.049 53.9807 179.979 53.9512C178.377 53.2774 176.745 52.6695 175.181 51.9143C174.287 51.483 173.544 51.531 172.669 51.9315C170.947 52.7201 169.178 53.4024 167.429 54.131C167.35 54.1634 167.281 54.2189 167.178 54.2819C167.339 54.4023 167.481 54.5006 167.615 54.6103C168.352 55.2127 168.635 56.0383 168.649 56.9607C168.672 58.3563 168.678 59.7554 168.649 61.152C168.618 62.6666 167.725 63.5212 166.395 63.8269C164.788 64.1959 163.297 63.824 161.908 62.9714C161.788 62.8974 161.681 62.6939 161.677 62.5472C161.654 61.7706 161.655 60.9926 161.669 60.2153C161.684 59.3329 161.979 58.6013 162.832 58.2336C163.062 58.1362 163.318 58.0587 163.563 58.0489C164.21 58.0236 164.858 58.0405 165.529 58.0405V59.5127H164.034C163.313 59.5127 163.161 59.6665 163.16 60.3948C163.16 60.8453 163.141 61.2967 163.163 61.7462C163.168 61.8595 163.266 62.0253 163.364 62.0688C164.273 62.4739 165.209 62.6368 166.191 62.3573C166.751 62.1977 167.139 61.8027 167.146 61.2172C167.164 59.697 167.168 58.1755 167.123 56.6566C167.1 55.8868 166.385 55.3584 165.468 55.3286C164.513 55.2961 163.626 55.5853 162.752 55.939C162.591 56.0039 162.434 56.075 162.226 56.164C162.137 55.7339 162.038 55.3445 161.989 54.9485C161.978 54.8606 162.12 54.7064 162.226 54.6564C163.326 54.1349 164.468 53.8012 165.698 53.8853C165.751 53.8889 165.804 53.8707 165.891 53.8574C165.677 52.6565 165.562 51.4635 165.771 50.2617C165.98 49.0599 166.524 48.0129 167.217 46.9961C164.402 46.261 162.189 44.6044 160.027 42.8016C162.523 40.8952 164.995 38.9956 168.23 38.4052C170.123 30.9941 172.019 23.57 173.937 16.0606C174.048 16.45 174.144 16.7577 174.225 17.0709C174.464 17.9968 174.701 18.9228 174.931 19.851C175.278 21.2576 175.607 22.6691 175.965 24.0727C176.414 25.8347 176.89 27.5899 177.346 29.3503C178.004 31.8908 178.659 34.4325 179.31 36.9752C179.411 37.3647 179.494 37.7623 179.618 38.1436C179.658 38.265 179.789 38.4156 179.904 38.4419C182.35 39.0053 184.498 40.1974 186.503 41.6919C186.963 42.035 187.43 42.3689 187.976 42.7675C186.784 43.6233 185.661 44.4798 184.488 45.2568C183.315 46.0338 182.042 46.5936 180.653 47.0094C182.221 49.094 182.545 51.3759 181.98 53.8269C182.397 53.8726 182.778 53.8986 183.155 53.9567C184.733 54.2059 185.696 55.3792 185.726 57.0097C185.745 58.0996 185.45 59.1216 185.171 60.1511C184.99 60.8229 184.783 61.4882 184.625 62.1659C184.309 63.5153 183.263 64.0629 182.088 63.9434C181.784 63.911 181.49 63.7893 181.186 63.7467C180.875 63.7029 180.81 63.505 180.779 63.2365C180.669 62.2983 180.549 61.3613 180.432 60.4237C180.383 60.0258 180.294 59.9433 179.907 59.9333C179.731 59.9287 179.554 59.9278 179.378 59.9232C179.357 59.9232 179.336 59.9109 179.258 59.8859C179.258 59.4835 179.252 59.0609 179.266 58.639C179.268 58.5828 179.376 58.4793 179.427 58.4838C179.907 58.5244 180.412 58.5023 180.856 58.6568C181.576 58.9064 181.808 59.5714 181.891 60.2867C181.967 60.9358 182.029 61.5849 182.1 62.2317C182.114 62.3166 182.133 62.4007 182.156 62.4836C182.326 62.4836 182.489 62.4816 182.653 62.4836C182.895 62.4872 183.057 62.3726 183.119 62.1363C183.477 60.7797 183.854 59.4273 184.173 58.0606C184.27 57.6439 184.241 57.1843 184.202 56.7491C184.124 55.9085 183.461 55.3178 182.51 55.3438C181.781 55.3639 181.053 55.5272 180.332 55.6651C179.968 55.7378 179.623 55.893 179.227 56.0234ZM173.088 26.5108L172.934 26.5189L170.027 38.0842C170.829 38.0407 171.564 38.0005 172.299 37.9616C173.093 37.9194 173.09 37.92 173.093 37.0995C173.106 33.7205 173.119 30.3417 173.132 26.9629C173.133 26.8123 173.103 26.6617 173.088 26.5108ZM173.097 47.6977C172.836 47.6799 172.619 47.6679 172.402 47.65C171.34 47.5617 170.279 47.4689 169.216 47.3904C169.138 47.3849 169.034 47.4553 168.976 47.5225C168.226 48.3858 167.649 49.3526 167.452 50.5031C167.357 51.0688 167.362 51.653 167.315 52.3148C167.898 52.072 168.372 51.8727 168.847 51.677C170.181 51.1282 171.515 50.5843 172.845 50.0248C172.95 49.9806 173.082 49.8346 173.085 49.7327C173.108 49.068 173.097 48.4043 173.097 47.6977ZM174.789 37.8963L177.849 38.0716C176.853 34.1205 175.869 30.2175 174.885 26.3131L174.79 26.3303L174.789 37.8963ZM180.489 52.2664C180.508 52.1366 180.527 52.0522 180.531 51.9659C180.612 50.2954 180.051 48.8635 178.993 47.6111C178.852 47.4446 178.71 47.4024 178.507 47.4189C177.357 47.514 176.206 47.6049 175.055 47.6786C174.832 47.6929 174.779 47.776 174.783 47.984C174.792 48.5237 174.795 49.0641 174.777 49.6035C174.77 49.8466 174.859 49.9569 175.077 50.0452C176.34 50.557 177.596 51.0873 178.856 51.6079C179.39 51.8283 179.927 52.0402 180.489 52.2668V52.2664ZM173.092 39.6645C170.414 39.3889 164.821 40.7855 164.037 41.9302H173.092V39.6645ZM183.753 41.923C180.956 40.1023 177.938 39.656 174.777 39.634C174.777 40.3207 174.79 40.9718 174.771 41.6218C174.763 41.898 174.858 41.96 175.113 41.9594C177.878 41.9509 180.643 41.9538 183.408 41.9529C183.49 41.9525 183.572 41.9392 183.753 41.923ZM164.19 43.6817C164.184 43.7048 164.179 43.7278 164.173 43.7509C164.231 43.8003 164.292 43.8464 164.356 43.8888C165.384 44.5016 166.452 45.0118 167.607 45.3412C168.204 45.5116 168.644 45.4862 169.1 44.9923C169.544 44.5094 170.106 44.1371 170.658 43.6817H164.19ZM177.341 43.6817L177.278 43.8041C177.337 43.8333 177.405 43.8525 177.455 43.8937C178.035 44.3704 178.622 44.8397 179.185 45.337C179.358 45.4901 179.505 45.5278 179.718 45.4746C180.68 45.2347 181.608 44.8978 182.488 44.4324C182.907 44.2114 183.317 43.9742 183.732 43.7444L183.703 43.6817H177.341ZM173.072 45.9861V44.1968C172.244 44.6973 171.464 45.1705 170.698 45.8407L173.072 45.9861ZM174.817 45.9766L177.047 45.8468C177.059 45.8069 177.071 45.7667 177.084 45.7267L174.817 44.1796V45.9766Z" fill="#DE5C8E"/>
<path d="M170.434 53.995H171.898V54.4042C171.898 56.5336 171.925 58.6633 171.886 60.7917C171.867 61.8076 172.383 62.31 173.214 62.4469C174.046 62.5839 174.834 62.4313 175.599 62.0971C175.825 61.9997 175.876 61.8501 175.875 61.607C175.865 59.1959 175.868 56.7851 175.868 54.3741V54.0047H177.312C177.324 54.0738 177.349 54.1469 177.349 54.2202C177.353 57.0026 177.359 59.785 177.344 62.5673C177.344 62.715 177.192 62.9328 177.057 62.9961C176.43 63.2882 175.801 63.5952 175.142 63.7867C174.206 64.0593 173.248 64.0564 172.312 63.7218C171.071 63.2768 170.433 62.4459 170.416 61.1078C170.387 58.81 170.405 56.5115 170.404 54.2134C170.41 54.14 170.419 54.0671 170.434 53.995Z" fill="#DE5C8E"/>
<path d="M186.957 63.9691C187.518 63.9691 187.973 63.5041 187.973 62.9305C187.973 62.3569 187.518 61.8919 186.957 61.8919C186.396 61.8919 185.941 62.3569 185.941 62.9305C185.941 63.5041 186.396 63.9691 186.957 63.9691Z" fill="#DE5C8E"/>
<path d="M179.981 47.6328C180.084 47.6328 180.084 47.4705 179.981 47.4705C179.879 47.4705 179.879 47.6328 179.981 47.6328Z" fill="#DE5C8E"/>
<path d="M220.56 31.224H223.032V48H220.56V31.224ZM230.818 48.36C229.858 48.36 228.906 48.272 227.962 48.096C227.034 47.936 226.274 47.712 225.682 47.424V45.216C227.218 45.936 228.874 46.296 230.65 46.296C233.146 46.296 234.394 45.456 234.394 43.776C234.394 43.2 234.258 42.736 233.986 42.384C233.714 42.032 233.322 41.728 232.81 41.472C232.298 41.2 231.466 40.832 230.314 40.368C228.73 39.728 227.586 39.024 226.882 38.256C226.178 37.488 225.826 36.52 225.826 35.352C225.826 34.472 226.066 33.696 226.546 33.024C227.026 32.336 227.698 31.808 228.562 31.44C229.426 31.056 230.418 30.864 231.538 30.864C232.45 30.864 233.274 30.936 234.01 31.08C234.746 31.224 235.466 31.456 236.17 31.776V33.888C234.778 33.264 233.37 32.952 231.946 32.952C230.794 32.952 229.914 33.16 229.306 33.576C228.698 33.992 228.394 34.584 228.394 35.352C228.394 35.88 228.522 36.328 228.778 36.696C229.05 37.048 229.442 37.368 229.954 37.656C230.482 37.928 231.258 38.272 232.282 38.688C233.418 39.152 234.314 39.592 234.97 40.008C235.626 40.424 236.122 40.936 236.458 41.544C236.81 42.136 236.986 42.88 236.986 43.776C236.986 45.232 236.466 46.36 235.426 47.16C234.386 47.96 232.85 48.36 230.818 48.36ZM239.615 31.224H245.015C246.823 31.224 248.391 31.56 249.719 32.232C251.047 32.904 252.063 33.864 252.767 35.112C253.487 36.36 253.847 37.832 253.847 39.528C253.847 42.312 253.039 44.424 251.423 45.864C249.823 47.288 247.575 48 244.679 48H239.615V31.224ZM244.655 45.96C246.895 45.96 248.575 45.408 249.695 44.304C250.815 43.2 251.375 41.608 251.375 39.528C251.375 37.608 250.823 36.088 249.719 34.968C248.631 33.848 247.071 33.288 245.039 33.288H242.063V45.96H244.655ZM270.029 48.36C269.069 48.36 268.117 48.272 267.173 48.096C266.245 47.936 265.485 47.712 264.893 47.424V45.216C266.429 45.936 268.085 46.296 269.861 46.296C272.357 46.296 273.605 45.456 273.605 43.776C273.605 43.2 273.469 42.736 273.197 42.384C272.925 42.032 272.533 41.728 272.021 41.472C271.509 41.2 270.677 40.832 269.525 40.368C267.941 39.728 266.797 39.024 266.093 38.256C265.389 37.488 265.037 36.52 265.037 35.352C265.037 34.472 265.277 33.696 265.757 33.024C266.237 32.336 266.909 31.808 267.773 31.44C268.637 31.056 269.629 30.864 270.749 30.864C271.661 30.864 272.485 30.936 273.221 31.08C273.957 31.224 274.677 31.456 275.381 31.776V33.888C273.989 33.264 272.581 32.952 271.157 32.952C270.005 32.952 269.125 33.16 268.517 33.576C267.909 33.992 267.605 34.584 267.605 35.352C267.605 35.88 267.733 36.328 267.989 36.696C268.261 37.048 268.653 37.368 269.165 37.656C269.693 37.928 270.469 38.272 271.493 38.688C272.629 39.152 273.525 39.592 274.181 40.008C274.837 40.424 275.333 40.936 275.669 41.544C276.021 42.136 276.197 42.88 276.197 43.776C276.197 45.232 275.677 46.36 274.637 47.16C273.597 47.96 272.061 48.36 270.029 48.36ZM286.616 48.36C284.888 48.36 283.352 48 282.008 47.28C280.664 46.56 279.616 45.544 278.864 44.232C278.112 42.904 277.736 41.368 277.736 39.624C277.736 37.88 278.112 36.344 278.864 35.016C279.616 33.688 280.664 32.664 282.008 31.944C283.352 31.224 284.888 30.864 286.616 30.864C288.936 30.864 290.864 31.44 292.4 32.592V34.944C291.008 33.728 289.152 33.12 286.832 33.12C285.568 33.12 284.432 33.384 283.424 33.912C282.416 34.44 281.624 35.2 281.048 36.192C280.488 37.168 280.208 38.312 280.208 39.624C280.208 40.936 280.488 42.088 281.048 43.08C281.608 44.072 282.384 44.832 283.376 45.36C284.368 45.888 285.488 46.152 286.736 46.152C288.192 46.152 289.384 45.856 290.312 45.264V40.872H287.12V38.88H292.76V46.56C292.008 47.184 291.12 47.64 290.096 47.928C289.088 48.216 287.928 48.36 286.616 48.36ZM303.796 48.36C302.068 48.36 300.532 48 299.188 47.28C297.844 46.56 296.796 45.544 296.044 44.232C295.292 42.904 294.916 41.368 294.916 39.624C294.916 37.88 295.292 36.344 296.044 35.016C296.796 33.688 297.844 32.664 299.188 31.944C300.532 31.224 302.068 30.864 303.796 30.864C306.1 30.864 308.028 31.448 309.58 32.616V34.968C308.188 33.736 306.332 33.12 304.012 33.12C302.716 33.12 301.564 33.384 300.556 33.912C299.564 34.44 298.788 35.2 298.228 36.192C297.668 37.168 297.388 38.312 297.388 39.624C297.388 40.936 297.668 42.088 298.228 43.08C298.804 44.072 299.588 44.832 300.58 45.36C301.588 45.888 302.732 46.152 304.012 46.152C305.196 46.152 306.252 46 307.18 45.696C308.124 45.376 308.996 44.872 309.796 44.184V46.56C308.356 47.76 306.356 48.36 303.796 48.36ZM319.251 48.36C316.963 48.36 315.235 47.776 314.067 46.608C312.899 45.424 312.315 43.8 312.315 41.736V31.224H314.763V41.832C314.763 43.256 315.163 44.336 315.963 45.072C316.763 45.792 317.859 46.152 319.251 46.152C320.627 46.152 321.715 45.792 322.515 45.072C323.315 44.336 323.715 43.256 323.715 41.832V31.224H326.163V41.736C326.163 43.784 325.579 45.4 324.411 46.584C323.243 47.768 321.523 48.36 319.251 48.36Z" fill="#DE5C8E"/>
</svg>
